<svg xmlns="http://www.w3.org/2000/svg" width="45" height="70.721" viewBox="0 0 45 70.721"><defs><style>.a{fill:#443f34;}</style></defs><path class="a" d="M34.855,4.31,38.07,47H48.19a3.225,3.225,0,0,1,2.637,1.545,3.451,3.451,0,0,1-.264,2.825C43.18,61.922,30.812,71.955,30.284,72.206a4.876,4.876,0,0,1-1.783.5c-.013,0-.038.013-.05.013a2.821,2.821,0,0,1-1.582-.515c-.528-.251-12.934-10.033-20.317-20.832-.527-1.03-.791-2.059-.264-2.825A2.537,2.537,0,0,1,8.661,47H18.782L22,4.31C23.026,3.03,25.613,2,28.451,2,31.013,2,33.825,2.766,34.855,4.31Z" transform="translate(-6 -2)"/></svg>