<?xml version="1.0" encoding="UTF-8"?>
<svg version="1.1" xmlns="http://www.w3.org/2000/svg" width="1440" height="245">
<path d="M0 0 C7.35813939 7.09784849 14.19919007 14.39266801 20.43945312 22.51025391 C21.16527588 23.45336426 21.16527588 23.45336426 21.90576172 24.41552734 C23.50767795 26.50412052 25.10064811 28.59917189 26.68945312 30.69775391 C27.18517822 31.35106689 27.68090332 32.00437988 28.19165039 32.67749023 C31.15642224 36.63800238 33.8411451 40.67339996 36.35253906 44.93725586 C37.36628779 46.67434557 37.36628779 46.67434557 39.43945312 47.51025391 C39.519375 46.82576172 39.59929687 46.14126953 39.68164062 45.43603516 C40.64193569 41.72850423 42.47262865 38.85258767 44.56445312 35.69775391 C44.97550293 35.07537842 45.38655273 34.45300293 45.81005859 33.81176758 C64.34451748 6.15437242 97.68439331 -4.22232001 128.90039062 -10.39599609 C155.93547808 -15.41541159 184.01490514 -15.91711803 211.43945312 -15.48974609 C212.49132812 -15.47717773 213.54320312 -15.46460937 214.62695312 -15.45166016 C305.69655054 -14.17229941 396.46544918 1.79136553 534.35034561 23.22852325 C585.91363634 31.38304123 637.47583262 39.31797592 689.43945312 44.51025391 C690.33738586 44.60113281 691.2353186 44.69201172 692.16046143 44.78564453 C755.90238726 53.64999591 755.90238726 53.64999591 814.43945312 36.51025391 C815.92006494 35.13681018 817.39902725 33.76158749 818.87695312 32.38525391 C863.06211377 -7.77707868 933.12533403 -9.73037061 989.56445312 -9.67724609 C991.49629456 -9.67584122 991.49629456 -9.67584122 993.46716309 -9.67440796 C1013.20368903 -9.64334489 1032.77799597 -9.34718086 1052.43945312 -7.48974609 C1053.2761554 -7.41197937 1054.11285767 -7.33421265 1054.97491455 -7.25408936 C1081.65927536 -4.75921743 1108.09440383 -1.41490449 1134.43945312 3.51025391 C1135.24618469 3.6595636 1136.05291626 3.80887329 1136.88409424 3.96270752 C1205.69899456 16.7043533 1205.69899456 16.7043533 1228.43945312 28.51025391 C1229.4134174 44.16860262 1229.31442837 56.21760125 1220.43945312 69.51025391 C1215.80046508 67.98296281 1211.1764075 66.42434129 1206.57617188 64.78369141 C1152.08602947 45.6212656 1093.76612103 38.0154214 1036.43945312 33.51025391 C1035.75741821 33.4551062 1035.0753833 33.3999585 1034.37268066 33.34313965 C1019.75461796 32.19532409 1005.0935715 32.26793687 990.43945312 32.26025391 C989.77515793 32.25966476 989.11086273 32.25907562 988.42643738 32.25846863 C967.60245311 32.24545236 947.09070867 32.67361016 926.43945312 35.51025391 C925.36630859 35.64947266 924.29316406 35.78869141 923.1875 35.93212891 C894.27352997 39.78019885 864.51658284 47.03503725 842.84643555 67.51953125 C815.32156451 93.22247766 768.45645164 90.70210543 733.43945312 89.51025391 C718.74616199 88.90578102 704.08866897 87.77569349 689.43945312 86.51025391 C688.67056763 86.44471313 687.90168213 86.37917236 687.10949707 86.31164551 C628.36840353 81.26527062 569.99259127 71.40616323 511.79176331 62.23554993 C436.19801841 50.31565953 436.19801841 50.31565953 360.43945312 39.51025391 C359.4936438 39.38217346 358.54783447 39.25409302 357.57336426 39.12213135 C301.62459954 31.56669909 244.98302074 25.2770351 188.43945312 26.51025391 C187.48441895 26.52427246 186.52938477 26.53829102 185.54541016 26.55273438 C153.32132339 27.07639603 109.41110453 28.58730833 84.64257812 52.22509766 C76.28368116 61.34953717 74.64785529 71.31456299 74.91210938 83.34228516 C75.63826679 95.71109949 79.91757653 107.69601984 83.43945312 119.51025391 C85.05799676 124.9506613 86.66763605 130.3934531 88.26104736 135.84127808 C88.92219597 138.07690017 89.6041503 140.30534784 90.28857422 142.53393555 C93.08546243 151.84878528 95.74189882 161.55329679 91.87695312 170.94775391 C89.01936063 175.84648389 84.74655733 178.74121917 79.43945312 180.51025391 C72.16057238 181.16804905 65.37906667 181.22144738 59.43945312 176.51025391 C56.5957051 173.21722947 54.56793616 170.06498033 52.77539062 166.10791016 C52.29827637 165.0638501 51.82116211 164.01979004 51.32958984 162.9440918 C50.57959717 161.27527954 50.57959717 161.27527954 49.81445312 159.57275391 C49.2873877 158.41702881 48.76032227 157.26130371 48.21728516 156.07055664 C45.71708319 150.58117915 43.24479381 145.07953429 40.78320312 139.57275391 C35.43297902 127.62982169 29.736071 115.98330066 23.43945312 104.51025391 C22.9404248 103.59598633 22.44139648 102.68171875 21.92724609 101.73974609 C2.74121234 66.72390499 -24.4356635 18.64546539 -65.56054688 6.51025391 C-78.74451842 3.0473753 -90.964524 4.53790714 -103.03320312 10.79150391 C-112.81747978 16.67187051 -116.81835493 25.73836145 -119.56054688 36.51025391 C-120.35103908 41.23562982 -120.67186482 45.73310372 -120.62646484 50.52099609 C-120.62179199 51.18400223 -120.61711914 51.84700836 -120.61230469 52.53010559 C-120.60186839 53.95959922 -120.58922846 55.38907817 -120.57458115 56.81853485 C-120.55230573 59.10105141 -120.53838687 61.38348166 -120.52688599 63.66607666 C-120.4935648 70.15315433 -120.45247684 76.64009327 -120.38916016 83.12695312 C-119.87593127 137.5126609 -119.87593127 137.5126609 -134.56054688 153.51025391 C-144.65876674 163.73443909 -156.42121599 167.41780736 -170.74804688 167.94775391 C-176.26774385 167.79984485 -181.53972298 166.92123017 -186.93554688 165.82275391 C-188.03032349 165.60026978 -188.03032349 165.60026978 -189.1472168 165.37329102 C-196.88286167 163.6545387 -203.93096598 161.05344754 -211.56054688 158.51025391 C-211.56054688 143.99025391 -211.56054688 129.47025391 -211.56054688 114.51025391 C-205.2736944 116.39630965 -199.14296613 118.32665529 -192.99804688 120.57275391 C-183.60960003 123.92276673 -175.60698268 125.88778177 -165.56054688 125.51025391 C-161.50087631 117.12026807 -162.45152582 107.2322313 -162.5465126 98.14514351 C-162.56886846 95.90054693 -162.58273299 93.65603899 -162.59420776 91.41136169 C-162.62746308 85.03445487 -162.66874811 78.65769181 -162.73193359 72.28100586 C-163.02689032 41.49008983 -162.44506827 10.32544061 -139.76757812 -13.31787109 C-139.03925781 -14.03458984 -138.3109375 -14.75130859 -137.56054688 -15.48974609 C-136.92503906 -16.12396484 -136.28953125 -16.75818359 -135.63476562 -17.41162109 C-93.9277442 -56.44179436 -35.41651003 -33.80969089 0 0 Z " fill="#0057FF" transform="translate(211.560546875,50.48974609375)"/>
</svg>
