<svg xmlns="http://www.w3.org/2000/svg" width="1072.533" height="306.603" viewBox="0 0 1072.533 306.603"><defs><style>.a{fill:#3b8f50;}.b{fill:#fff;}</style></defs><g transform="translate(-390 -13066.511)"><g transform="translate(390 13066.512)"><path class="a" d="M1195.936,18.491a121.349,121.349,0,0,1-121.35-121.355,121.355,121.355,0,0,1,121.35-121.355c.1,0,.189.008.28.008v-31.946c-.1,0-.182-.008-.28-.008a153.3,153.3,0,0,0-153.3,153.3,153.3,153.3,0,0,0,153.3,153.3c.1,0,.184-.006.28-.006V18.484C1196.124,18.484,1196.033,18.491,1195.936,18.491Z" transform="translate(-1042.637 256.165)"/><path class="a" d="M1042.637-102.864h31.948a121.355,121.355,0,0,1,121.35-121.355c.1,0,.189.008.28.008v-31.946c-.1,0-.182-.008-.28-.008A153.3,153.3,0,0,0,1042.637-102.864Z" transform="translate(-1042.637 256.165)"/></g><g transform="translate(437.531 13114.043)"><path class="a" d="M1170.832-233.737A105.77,105.77,0,0,1,1276.6-127.968,105.769,105.769,0,0,1,1170.832-22.2a105.768,105.768,0,0,1-105.767-105.772A105.769,105.769,0,0,1,1170.832-233.737Z" transform="translate(-1065.065 233.737)"/><path class="a" d="M1065.065-127.968H1276.6a105.77,105.77,0,0,0-105.771-105.769A105.769,105.769,0,0,0,1065.065-127.968Z" transform="translate(-1065.065 233.737)"/></g><path class="b" d="M47.075,2.523a2.5,2.5,0,0,0-1.657.658l-8.865,8.124L24.735,13.274a2.5,2.5,0,0,0-1.905,1.535L18.4,25.881l-9.844,6.9A2.5,2.5,0,0,0,7.494,34.97l.741,12.067L2.328,57.368a2.5,2.5,0,0,0,0,2.476L8.234,70.175,7.494,82.242a2.5,2.5,0,0,0,1.062,2.193l9.844,6.9L22.83,102.4a2.5,2.5,0,0,0,1.905,1.535l11.818,1.969,8.865,8.124a2.5,2.5,0,0,0,2.4.551l11.574-3.446,11.574,3.446a2.5,2.5,0,0,0,2.4-.551l8.865-8.124,11.818-1.969a2.5,2.5,0,0,0,1.905-1.535l4.43-11.072,9.844-6.9a2.5,2.5,0,0,0,1.062-2.193l-.741-12.067,5.906-10.331a2.5,2.5,0,0,0,0-2.476l-5.906-10.331.741-12.067a2.5,2.5,0,0,0-1.062-2.193l-9.844-6.9-4.43-11.072a2.5,2.5,0,0,0-1.905-1.535L82.226,11.305,73.362,3.181a2.5,2.5,0,0,0-2.4-.551L59.39,6.076,47.815,2.631A2.5,2.5,0,0,0,47.075,2.523Zm.672,5.292,10.931,3.255a2.5,2.5,0,0,0,1.423,0L71.032,7.816,79.4,15.487a2.5,2.5,0,0,0,1.277.619l11.16,1.862,4.186,10.458a2.5,2.5,0,0,0,.887,1.116l9.308,6.52-.7,11.414a2.5,2.5,0,0,0,.322,1.389l5.565,9.742-5.565,9.742a2.5,2.5,0,0,0-.322,1.389l.7,11.414L96.91,87.67a2.5,2.5,0,0,0-.887,1.116L91.836,99.245l-11.16,1.862a2.5,2.5,0,0,0-1.277.619L71.032,109.4,60.1,106.141a2.5,2.5,0,0,0-1.423,0L47.747,109.4l-8.367-7.671a2.5,2.5,0,0,0-1.277-.619l-11.16-1.862L22.757,88.786a2.5,2.5,0,0,0-.887-1.116l-9.308-6.52.7-11.414a2.5,2.5,0,0,0-.322-1.389L7.372,58.606l5.565-9.742a2.5,2.5,0,0,0,.322-1.389l-.7-11.414,9.308-6.52a2.5,2.5,0,0,0,.887-1.116l4.186-10.458L38.1,16.105a2.5,2.5,0,0,0,1.277-.619ZM81.992,32.3,54.643,74.747,36.358,58.25l-3.343,3.7L55.657,82.388,86.188,35Z" transform="translate(484.919 13158.477)"/></g></svg>