<svg xmlns="http://www.w3.org/2000/svg" width="1072.533" height="306.603" viewBox="0 0 1072.533 306.603"><defs><style>.a{fill:#398094;}.b{fill:#fff;}</style></defs><g transform="translate(-390 -12740.755)"><g transform="translate(390 12740.756)"><path class="a" d="M1195.936-135.222a121.348,121.348,0,0,1-121.35-121.353,121.354,121.354,0,0,1,121.35-121.355c.1,0,.189.006.28.006v-31.946c-.1,0-.182-.006-.28-.006a153.3,153.3,0,0,0-153.3,153.3,153.3,153.3,0,0,0,153.3,153.3c.1,0,.184-.006.28-.006v-31.946C1196.124-135.226,1196.033-135.222,1195.936-135.222Z" transform="translate(-1042.637 409.875)"/><path class="a" d="M1042.637-256.574h31.948a121.355,121.355,0,0,1,121.35-121.355c.1,0,.189.006.28.006v-31.946c-.1,0-.182-.006-.28-.006A153.3,153.3,0,0,0,1042.637-256.574Z" transform="translate(-1042.637 409.875)"/></g><g transform="translate(437.531 12788.285)"><path class="a" d="M1170.832-387.448A105.771,105.771,0,0,1,1276.6-281.676a105.767,105.767,0,0,1-105.771,105.769,105.766,105.766,0,0,1-105.767-105.769A105.771,105.771,0,0,1,1170.832-387.448Z" transform="translate(-1065.065 387.448)"/><path class="a" d="M1170.832-387.448a105.771,105.771,0,0,0-105.767,105.772H1276.6A105.771,105.771,0,0,0,1170.832-387.448Z" transform="translate(-1065.065 387.448)"/></g><path class="b" d="M74.684,4.125a16.7,16.7,0,0,0-6.5,1.738L56.174,11.738H22.1L2.722,7a2.182,2.182,0,1,0-1.039,4.239L21.569,16.1h25.68l-18.74,9.164.192-.081a4.769,4.769,0,0,0-1.67,7.694,23.375,23.375,0,0,0,25.923,5.973l12.836-4.933L92.27,60.393a5.068,5.068,0,0,1-7.166,7.17,2.181,2.181,0,0,0-3.084,3.084,5.068,5.068,0,0,1-7.17,7.166l-1.525-1.525a2.181,2.181,0,0,0-3.084,3.084,5.068,5.068,0,0,1-7.17,7.166l-1.525-1.525A2.181,2.181,0,0,0,58.462,88.1,5.067,5.067,0,0,1,51.3,95.262l-2.709-2.714,1.619-1.619a8.192,8.192,0,0,0-5.8-13.986c-.036,0-.071.008-.106.009a8.162,8.162,0,0,0-8.179-8.294c-.118,0-.235.029-.354.034a8.134,8.134,0,0,0-8.154-8.542c-.118,0-.235.029-.354.034a8.175,8.175,0,0,0-13.948-6.147l-2.007,2.006L2.577,54.522a2.182,2.182,0,1,0-.75,4.3L9,60.065a8.117,8.117,0,0,0,8.277,10.1,8.1,8.1,0,0,0,8.507,8.507A8.112,8.112,0,0,0,34.136,87.2a8.008,8.008,0,0,0,2.3,5.909A8.186,8.186,0,0,0,44.9,95.032l3.315,3.314a9.458,9.458,0,0,0,13.334,0A9.359,9.359,0,0,0,64.251,91.9,9.166,9.166,0,0,0,76.03,83.18a9.076,9.076,0,0,0,11.622-9.986,9.276,9.276,0,0,0,7.7-2.548,9.433,9.433,0,0,0,2.531-8.635l1.325-1.325,8.013-1.206a2.18,2.18,0,1,0-.647-4.311l-9.436,1.415-1.308,1.308c-.164-.193-.3-.4-.477-.584L68.524,30.482a2.181,2.181,0,0,0-.362-.3,2.182,2.182,0,0,0-2.616-.848L51.36,34.789l-.009,0a18.983,18.983,0,0,1-21.134-4.882l-.038-.043-.043-.043c-.28-.28-.267-.421.1-.558l.1-.038L57.213,16.083a2.181,2.181,0,0,0,1.333-.648L70.13,9.77l.008,0a12.281,12.281,0,0,1,12.469.878l1,1.2.247.17a15.958,15.958,0,0,0,13.381,2.266l10.122-2.151a2.181,2.181,0,1,0-.912-4.264L96.13,10.055l-.064.017a11.436,11.436,0,0,1-9.581-1.593l-1-1.2-.239-.166A16.718,16.718,0,0,0,74.684,4.125ZM19.106,55.92a3.824,3.824,0,0,1,2.709,1.2,3.656,3.656,0,0,1,0,5.423l-2.181,2.181a3.652,3.652,0,0,1-5.419,0,3.609,3.609,0,0,1-.716-4.46,2.181,2.181,0,0,0,.886-1.133L16.4,57.121A3.824,3.824,0,0,1,19.106,55.92Zm8.507,8.507a3.825,3.825,0,0,1,2.709,1.2,3.657,3.657,0,0,1,0,5.423l-2.181,2.181a3.656,3.656,0,0,1-5.423,0,3.656,3.656,0,0,1,0-5.423L24.9,65.628A3.834,3.834,0,0,1,27.614,64.427Zm8.507,8.507a3.825,3.825,0,0,1,2.709,1.2,3.61,3.61,0,0,1,.733,4.431,8.077,8.077,0,0,0-.95.775l-2.22,2.215-.034.038a8.444,8.444,0,0,0-.626.835,3.61,3.61,0,0,1-4.507-.69,3.657,3.657,0,0,1,0-5.423l2.181-2.181A3.834,3.834,0,0,1,36.121,72.935Zm8.286,8.286a3.839,3.839,0,0,1,2.714,1.206,3.652,3.652,0,0,1,0,5.419L44.94,90.026a3.657,3.657,0,0,1-5.423,0,4.261,4.261,0,0,1-.494-4.622,7.988,7.988,0,0,0,.711-.579l2.181-2.181a8.056,8.056,0,0,0,.775-.95A3.561,3.561,0,0,1,44.407,81.221Z" transform="translate(486.936 12848.904)"/></g></svg>