<svg xmlns="http://www.w3.org/2000/svg" width="1072.533" height="306.602" viewBox="0 0 1072.533 306.602"><defs><style>.a{fill:#3c6295;}.b{fill:#fff;}</style></defs><g transform="translate(-390 -12415)"><g transform="translate(390 12415)"><path class="a" d="M1195.936-288.929a121.349,121.349,0,0,1-121.35-121.355,121.355,121.355,0,0,1,121.35-121.357c.1,0,.189.006.28.006v-31.946c-.1,0-.182,0-.28,0a153.3,153.3,0,0,0-153.3,153.3,153.3,153.3,0,0,0,153.3,153.3c.1,0,.184-.006.28-.006v-31.948C1196.124-288.938,1196.033-288.929,1195.936-288.929Z" transform="translate(-1042.637 563.585)"/><path class="a" d="M1195.936-531.641c.1,0,.189.006.28.006v-31.946c-.1,0-.182,0-.28,0a153.3,153.3,0,0,0-153.3,153.3h31.948A121.355,121.355,0,0,1,1195.936-531.641Z" transform="translate(-1042.637 563.585)"/></g><circle class="a" cx="105.77" cy="105.77" r="105.77" transform="matrix(0.997, -0.079, 0.079, 0.997, 429.505, 12471.218)"/><path class="a" d="M1170.832-541.158a105.771,105.771,0,0,0-105.767,105.772H1276.6A105.771,105.771,0,0,0,1170.832-541.158Z" transform="translate(-627.534 13003.688)"/><path class="b" d="M47.342,3C34.513,3,25.859,6.905,20.388,13.12c-5.349,6.076-7.551,14.115-8.5,22.386l-8.2,14.131-.02.032A5.329,5.329,0,0,0,5.7,56.86l.079.039,6.157,3.078,1.98,13.692,0,.028a12.811,12.811,0,0,0,3.829,7.137,10.361,10.361,0,0,0,7.5,3.094h6.066v8.093H33a2.023,2.023,0,0,0,.66,0h1.7V81.906a2.023,2.023,0,0,0-2.023-2.023H25.086a6.4,6.4,0,0,1-4.544-1.968,9.032,9.032,0,0,1-2.632-4.853L15.784,58.354a2.023,2.023,0,0,0-1.1-1.521L7.664,53.324a1.137,1.137,0,0,1-.454-1.687l8.326-14.348a2.023,2.023,0,0,0,.261-.8c.864-8.041,2.981-15.417,7.631-20.7S35.313,7.046,47.342,7.046c1.387,0,2.72.071,4.027.186A2.023,2.023,0,1,0,51.724,3.2C50.323,3.078,48.868,3,47.342,3ZM71.779,3A20.169,20.169,0,0,0,51.546,23.046a18.552,18.552,0,0,0,5.635,13.645c1.343,1.372,2.6,2.453,3.39,3.375a3.354,3.354,0,0,1,1.091,2.292V55.236a4.57,4.57,0,0,0,4.41,4.394,6.037,6.037,0,0,0,11.412,0,4.57,4.57,0,0,0,4.41-4.394V42.362a4.284,4.284,0,0,1,1.138-2.972,43.152,43.152,0,0,1,3.3-3.276,17.125,17.125,0,0,0,5.675-13.064A20.171,20.171,0,0,0,71.779,3Zm0,4.046a16.063,16.063,0,0,1,16.186,16c0,5.51-2.042,7.837-4.442,10.156a38.871,38.871,0,0,0-3.651,3.659,8.764,8.764,0,0,0-2.023,5.5v5.149H73.8V30.14l5.477-5.477A2.023,2.023,0,1,0,76.418,21.8l-4.639,4.639L67.139,21.8a2.023,2.023,0,1,0-2.861,2.861l5.477,5.477V47.511H65.709V42.358a7.6,7.6,0,0,0-2.071-4.932c-1.1-1.281-2.378-2.352-3.565-3.564a13.761,13.761,0,0,1-4.481-10.816A16.061,16.061,0,0,1,71.779,7.046Zm-6.07,44.511H77.848v3.679c0,.3-.069.367-.577.367H66.286c-.511,0-.577-.067-.577-.367Zm5.623,16.158a2.023,2.023,0,0,0-1.944,1.407,31.257,31.257,0,0,0-1.656,9.938V92.022h1.683a2.023,2.023,0,0,0,.66,0h1.7V79.061a27.166,27.166,0,0,1,1.446-8.65,2.023,2.023,0,0,0-1.893-2.7Z" transform="translate(493.989 12521)"/></g></svg>