<svg xmlns="http://www.w3.org/2000/svg" width="1072.533" height="306.602" viewBox="0 0 1072.533 306.602"><defs><style>.a{fill:#7d963e;}.b{fill:#fff;}</style></defs><g transform="translate(-390 -13392.268)"><g transform="translate(390 13392.268)"><path class="a" d="M1195.936,172.2a121.355,121.355,0,0,1,0-242.709c.1,0,.189.006.28.006v-31.946c-.1,0-.182-.006-.28-.006a153.3,153.3,0,0,0,0,306.6c.1,0,.184-.006.28-.006V172.194C1196.124,172.194,1196.033,172.2,1195.936,172.2Z" transform="translate(-1042.637 102.455)"/><path class="a" d="M1042.637,50.846h31.948a121.354,121.354,0,0,1,121.35-121.355c.1,0,.189.006.28.006v-31.946c-.1,0-.182-.006-.28-.006A153.3,153.3,0,0,0,1042.637,50.846Z" transform="translate(-1042.637 102.455)"/></g><g transform="translate(426.98 13429.248)"><circle class="a" cx="105.77" cy="105.77" r="105.77" transform="translate(0 22.276) rotate(-6.045)"/><g transform="translate(10.551 10.549)"><path class="a" d="M1065.065,25.744H1276.6a105.769,105.769,0,1,0-211.539,0Z" transform="translate(-1065.065 80.028)"/></g></g><path class="b" d="M62.314,2a60.314,60.314,0,1,0,60.314,60.314A60.353,60.353,0,0,0,62.314,2ZM59.691,7.552V30.789H40.925a64.375,64.375,0,0,1,3.339-8.1C48.58,14.061,54.049,8.807,59.691,7.552Zm5.245,0c5.643,1.255,11.111,6.509,15.427,15.14a64.414,64.414,0,0,1,3.34,8.1H64.936ZM47.056,9.4a45.075,45.075,0,0,0-7.483,10.95,72.059,72.059,0,0,0-4.144,10.443H17.181A55.053,55.053,0,0,1,47.056,9.4Zm30.516,0a55.052,55.052,0,0,1,29.875,21.393H89.2a72.06,72.06,0,0,0-4.144-10.443A45.076,45.076,0,0,0,77.571,9.4ZM13.836,36.147H33.924a108.565,108.565,0,0,0-3,23.545H7.327A54.819,54.819,0,0,1,13.836,36.147Zm25.5,0H59.691V59.691H36.172A102.869,102.869,0,0,1,39.338,36.147Zm25.6,0H85.29a102.883,102.883,0,0,1,3.165,23.545H64.936Zm25.768,0h20.087a54.82,54.82,0,0,1,6.51,23.545H93.7A108.564,108.564,0,0,0,90.7,36.147ZM7.352,64.936h23.56a108.2,108.2,0,0,0,3.011,23.545H13.841A54.78,54.78,0,0,1,7.352,64.936Zm28.8,0H59.691V88.481H39.338A102.6,102.6,0,0,1,36.157,64.936Zm28.779,0H88.47A102.6,102.6,0,0,1,85.29,88.481H64.936Zm28.779,0h23.56a54.784,54.784,0,0,1-6.489,23.545H90.7A108.2,108.2,0,0,0,93.715,64.936ZM17.2,93.838H35.429a72.057,72.057,0,0,0,4.144,10.443,45.071,45.071,0,0,0,7.483,10.95A55.075,55.075,0,0,1,17.2,93.838Zm23.729,0H59.691v23.237c-5.643-1.255-11.111-6.509-15.427-15.14A64.382,64.382,0,0,1,40.925,93.838Zm24.011,0H83.7a64.42,64.42,0,0,1-3.34,8.1c-4.316,8.631-9.784,13.885-15.427,15.14Zm24.262,0h18.233a55.075,55.075,0,0,1-29.86,21.394,45.072,45.072,0,0,0,7.483-10.95A72.058,72.058,0,0,0,89.2,93.838Z" transform="translate(481.995 13483.162)"/></g></svg>