<svg width="56" height="55" viewBox="0 0 56 55" fill="none" xmlns="http://www.w3.org/2000/svg">
<g clip-path="url(#clip0_226_1772)">
<path d="M28.251 54.834C35.5225 54.834 42.4961 51.9455 47.6378 46.8038C52.7795 41.6621 55.668 34.6885 55.668 27.417C55.668 20.1456 52.7795 13.1719 47.6378 8.03026C42.4961 2.88857 35.5225 0 28.251 0C20.9796 0 14.0059 2.88857 8.86425 8.03026C3.72256 13.1719 0.833984 20.1456 0.833984 27.417C0.833984 34.6885 3.72256 41.6621 8.86425 46.8038C14.0059 51.9455 20.9796 54.834 28.251 54.834Z" fill="white"/>
<path d="M12.834 12V42H42.834V38.6667H16.1673V12H12.834ZM40.0345 17.5241L32.8145 24.6758L27.8242 19.9036L18.3385 29.1387L20.6628 31.528L27.8438 24.5358L32.8535 29.3242L42.3815 19.8906L40.0345 17.5241Z" fill="#5290A2"/>
</g>
<defs>
<clipPath id="clip0_226_1772">
<rect width="54.834" height="54.834" fill="white" transform="translate(0.833984)"/>
</clipPath>
</defs>
</svg>
