<svg width="55" height="56" viewBox="0 0 55 56" fill="none" xmlns="http://www.w3.org/2000/svg">
<g clip-path="url(#clip0_226_1776)">
<path d="M27.417 55.668C34.6885 55.668 41.6621 52.7795 46.8038 47.6378C51.9455 42.4961 54.834 35.5225 54.834 28.251C54.834 20.9796 51.9455 14.0059 46.8038 8.86424C41.6621 3.72255 34.6885 0.833984 27.417 0.833984C20.1456 0.833984 13.172 3.72255 8.03026 8.86424C2.88857 14.0059 0 20.9796 0 28.251C0 35.5225 2.88857 42.4961 8.03026 47.6378C13.172 52.7795 20.1456 55.668 27.417 55.668Z" fill="white"/>
<path d="M27 13.5469C23.5487 13.5469 20.75 16.3456 20.75 19.7969C20.75 22.3576 22.2951 24.5539 24.5 25.5195V41.0469L27 43.5469L29.5 41.0469V39.7969L28.25 38.5469L29.5 37.2969L28.25 36.0469L29.5 34.7993L28.25 33.5469L29.5 32.2969V25.5195C31.7049 24.5539 33.25 22.3576 33.25 19.7969C33.25 16.3456 30.4513 13.5469 27 13.5469ZM27 16.0469C27.69 16.0469 28.25 16.6069 28.25 17.2969C28.25 17.9869 27.69 18.5469 27 18.5469C26.31 18.5469 25.75 17.9869 25.75 17.2969C25.75 16.6069 26.31 16.0469 27 16.0469ZM14.5 23.5469C13.837 23.5469 13.2011 23.8103 12.7322 24.2791C12.2634 24.7479 12 25.3838 12 26.0469C12 26.7099 12.2634 27.3458 12.7322 27.8146C13.2011 28.2835 13.837 28.5469 14.5 28.5469C14.8838 28.5459 15.2622 28.4565 15.606 28.2856L17.5566 29.5869C17.762 29.7238 18.0032 29.7969 18.25 29.7969H20.75C20.9156 29.7992 21.0801 29.7686 21.2338 29.7069C21.3875 29.6451 21.5274 29.5534 21.6454 29.4371C21.7633 29.3208 21.857 29.1822 21.9209 29.0294C21.9849 28.8765 22.0178 28.7125 22.0178 28.5469C22.0178 28.3812 21.9849 28.2172 21.9209 28.0644C21.857 27.9116 21.7633 27.773 21.6454 27.6567C21.5274 27.5404 21.3875 27.4487 21.2338 27.3869C21.0801 27.3251 20.9156 27.2945 20.75 27.2969H18.6284L16.9927 26.208C16.9968 26.1544 16.9993 26.1007 17 26.0469C17 25.3838 16.7366 24.7479 16.2678 24.2791C15.7989 23.8103 15.163 23.5469 14.5 23.5469ZM39.5 23.5469C38.837 23.5469 38.2011 23.8103 37.7322 24.2791C37.2634 24.7479 37 25.3838 37 26.0469C37.0007 26.1007 37.0032 26.1544 37.0073 26.208L35.3716 27.2969H33.25C33.0844 27.2945 32.9199 27.3251 32.7662 27.3869C32.6125 27.4487 32.4726 27.5404 32.3546 27.6567C32.2367 27.773 32.143 27.9116 32.0791 28.0644C32.0151 28.2172 31.9822 28.3812 31.9822 28.5469C31.9822 28.7125 32.0151 28.8765 32.0791 29.0294C32.143 29.1822 32.2367 29.3208 32.3546 29.4371C32.4726 29.5534 32.6125 29.6451 32.7662 29.7069C32.9199 29.7686 33.0844 29.7992 33.25 29.7969H35.75C35.9968 29.7969 36.238 29.7238 36.4434 29.5869L38.394 28.2856C38.7378 28.4565 39.1162 28.5459 39.5 28.5469C40.163 28.5469 40.7989 28.2835 41.2678 27.8146C41.7366 27.3458 42 26.7099 42 26.0469C42 25.3838 41.7366 24.7479 41.2678 24.2791C40.7989 23.8103 40.163 23.5469 39.5 23.5469ZM14.5 31.0469C13.837 31.0469 13.2011 31.3103 12.7322 31.7791C12.2634 32.2479 12 32.8838 12 33.5469C12 34.2099 12.2634 34.8458 12.7322 35.3146C13.2011 35.7835 13.837 36.0469 14.5 36.0469C14.9385 36.0465 15.3692 35.9308 15.7489 35.7114C16.1285 35.492 16.4438 35.1766 16.6631 34.7969H20.75C20.9156 34.7992 21.0801 34.7686 21.2338 34.7068C21.3875 34.6451 21.5274 34.5534 21.6454 34.4371C21.7633 34.3208 21.857 34.1822 21.9209 34.0294C21.9849 33.8765 22.0178 33.7125 22.0178 33.5469C22.0178 33.3812 21.9849 33.2172 21.9209 33.0644C21.857 32.9116 21.7633 32.773 21.6454 32.6567C21.5274 32.5404 21.3875 32.4487 21.2338 32.3869C21.0801 32.3251 20.9156 32.2945 20.75 32.2969H16.6606C16.4416 31.9175 16.1267 31.6023 15.7475 31.3829C15.3683 31.1635 14.9381 31.0476 14.5 31.0469ZM39.5 31.0469C39.0615 31.0472 38.6308 31.1629 38.2511 31.3823C37.8715 31.6017 37.5562 31.9171 37.3369 32.2969H33.25C33.0844 32.2945 32.9199 32.3251 32.7662 32.3869C32.6125 32.4487 32.4726 32.5404 32.3546 32.6567C32.2367 32.773 32.143 32.9116 32.0791 33.0644C32.0151 33.2172 31.9822 33.3812 31.9822 33.5469C31.9822 33.7125 32.0151 33.8765 32.0791 34.0294C32.143 34.1822 32.2367 34.3208 32.3546 34.4371C32.4726 34.5534 32.6125 34.6451 32.7662 34.7068C32.9199 34.7686 33.0844 34.7992 33.25 34.7969H37.3394C37.5584 35.1763 37.8733 35.4915 38.2525 35.7108C38.6317 35.9302 39.0619 36.0461 39.5 36.0469C40.163 36.0469 40.7989 35.7835 41.2678 35.3146C41.7366 34.8458 42 34.2099 42 33.5469C42 32.8838 41.7366 32.2479 41.2678 31.7791C40.7989 31.3103 40.163 31.0469 39.5 31.0469ZM18.25 37.2969C18.0032 37.2969 17.762 37.3699 17.5566 37.5068L15.606 38.8081C15.2622 38.6373 14.8838 38.5479 14.5 38.5469C13.837 38.5469 13.2011 38.8103 12.7322 39.2791C12.2634 39.7479 12 40.3838 12 41.0469C12 41.7099 12.2634 42.3458 12.7322 42.8146C13.2011 43.2835 13.837 43.5469 14.5 43.5469C15.163 43.5469 15.7989 43.2835 16.2678 42.8146C16.7366 42.3458 17 41.7099 17 41.0469C16.9993 40.9931 16.9968 40.9394 16.9927 40.8857L18.6284 39.7969H20.75C20.9156 39.7992 21.0801 39.7686 21.2338 39.7068C21.3875 39.6451 21.5274 39.5534 21.6454 39.4371C21.7633 39.3208 21.857 39.1822 21.9209 39.0294C21.9849 38.8765 22.0178 38.7125 22.0178 38.5469C22.0178 38.3812 21.9849 38.2172 21.9209 38.0644C21.857 37.9116 21.7633 37.773 21.6454 37.6567C21.5274 37.5404 21.3875 37.4487 21.2338 37.3869C21.0801 37.3251 20.9156 37.2945 20.75 37.2969H18.25ZM33.25 37.2969C33.0844 37.2945 32.9199 37.3251 32.7662 37.3869C32.6125 37.4487 32.4726 37.5404 32.3546 37.6567C32.2367 37.773 32.143 37.9116 32.0791 38.0644C32.0151 38.2172 31.9822 38.3812 31.9822 38.5469C31.9822 38.7125 32.0151 38.8765 32.0791 39.0294C32.143 39.1822 32.2367 39.3208 32.3546 39.4371C32.4726 39.5534 32.6125 39.6451 32.7662 39.7068C32.9199 39.7686 33.0844 39.7992 33.25 39.7969H35.3716L37.0073 40.8857C37.0032 40.9394 37.0007 40.9931 37 41.0469C37 41.7099 37.2634 42.3458 37.7322 42.8146C38.2011 43.2835 38.837 43.5469 39.5 43.5469C40.163 43.5469 40.7989 43.2835 41.2678 42.8146C41.7366 42.3458 42 41.7099 42 41.0469C42 40.3838 41.7366 39.7479 41.2678 39.2791C40.7989 38.8103 40.163 38.5469 39.5 38.5469C39.1162 38.5479 38.7378 38.6373 38.394 38.8081L36.4434 37.5068C36.238 37.3699 35.9968 37.2969 35.75 37.2969H33.25Z" fill="#489A81"/>
</g>
<defs>
<clipPath id="clip0_226_1776">
<rect width="54.834" height="54.834" fill="white" transform="translate(0 0.833984)"/>
</clipPath>
</defs>
</svg>
