<svg width="55" height="55" viewBox="0 0 55 55" fill="none" xmlns="http://www.w3.org/2000/svg">
<g clip-path="url(#clip0_226_1768)">
<path d="M27.417 54.834C34.6885 54.834 41.6621 51.9455 46.8038 46.8038C51.9455 41.6621 54.834 34.6885 54.834 27.417C54.834 20.1456 51.9455 13.1719 46.8038 8.03026C41.6621 2.88857 34.6885 0 27.417 0C20.1456 0 13.172 2.88857 8.03026 8.03026C2.88857 13.1719 0 20.1456 0 27.417C0 34.6885 2.88857 41.6621 8.03026 46.8038C13.172 51.9455 20.1456 54.834 27.417 54.834Z" fill="white"/>
<path d="M24.087 12.7129C23.2437 12.7129 22.5253 13.2632 22.2527 14.0172H14.9565C13.8789 14.0172 13 14.8961 13 15.9738V38.7998C13 39.8775 13.8789 40.7564 14.9565 40.7564H25.3913V25.7564C25.3913 23.9578 26.8536 22.4955 28.6522 22.4955H35.1739V15.9738C35.1739 14.8961 34.295 14.0172 33.2174 14.0172H25.9212C25.6486 13.2632 24.9302 12.7129 24.087 12.7129ZM24.087 14.0172C24.4538 14.0172 24.7391 14.3026 24.7391 14.6694C24.7391 15.0363 24.4538 15.3216 24.087 15.3216C23.7201 15.3216 23.4348 15.0363 23.4348 14.6694C23.4348 14.3026 23.7201 14.0172 24.087 14.0172ZM18.8696 15.3216H22.2527C22.5253 16.0757 23.2437 16.6259 24.087 16.6259C24.9302 16.6259 25.6486 16.0757 25.9212 15.3216H29.3043V17.2781C29.3043 17.9991 28.721 18.5825 28 18.5825H20.1739C19.453 18.5825 18.8696 17.9991 18.8696 17.2781V15.3216ZM18.8696 21.8433H20.1739V25.7564H21.4783V23.1477H22.7826V25.7564H24.087V27.0607H14.9565V25.7564H16.2609V23.7998H17.5652V25.7564H18.8696V21.8433ZM28.6522 23.7998C27.5746 23.7998 26.6957 24.6788 26.6957 25.7564V40.7564C26.6957 41.834 27.5746 42.7129 28.6522 42.7129H40.3913C41.4689 42.7129 42.3478 41.834 42.3478 40.7564V25.7564C42.3478 24.6788 41.4689 23.7998 40.3913 23.7998H28.6522ZM29.9565 26.4085H39.087C39.4487 26.4085 39.7391 26.7015 39.7391 27.0607V29.6694C39.7391 30.0312 39.4487 30.3216 39.087 30.3216H29.9565C29.5948 30.3216 29.3043 30.0312 29.3043 29.6694V27.0607C29.3043 26.7015 29.5948 26.4085 29.9565 26.4085ZM19.5217 29.6694C21.6795 29.6694 23.4348 31.4247 23.4348 33.5825C23.4348 35.7402 21.6795 37.4955 19.5217 37.4955C17.364 37.4955 15.6087 35.7402 15.6087 33.5825C15.6087 31.4247 17.364 29.6694 19.5217 29.6694ZM19.5217 30.9738C18.0824 30.9738 16.913 32.1431 16.913 33.5825C16.913 35.0218 18.0824 36.1912 19.5217 36.1912C20.9611 36.1912 22.1304 35.0218 22.1304 33.5825H19.5217V30.9738ZM29.9565 31.6259H31.2609C31.6201 31.6259 31.913 31.9189 31.913 32.2781V32.9303C31.913 33.2895 31.6201 33.5825 31.2609 33.5825H29.9565C29.5973 33.5825 29.3043 33.2895 29.3043 32.9303V32.2781C29.3043 31.9189 29.5973 31.6259 29.9565 31.6259ZM33.8696 31.6259H35.1739C35.5331 31.6259 35.8261 31.9189 35.8261 32.2781V32.9303C35.8261 33.2895 35.5331 33.5825 35.1739 33.5825H33.8696C33.5104 33.5825 33.2174 33.2895 33.2174 32.9303V32.2781C33.2174 31.9189 33.5104 31.6259 33.8696 31.6259ZM37.7826 31.6259H39.087C39.4462 31.6259 39.7391 31.9189 39.7391 32.2781V32.9303C39.7391 33.2895 39.4462 33.5825 39.087 33.5825H37.7826C37.4234 33.5825 37.1304 33.2895 37.1304 32.9303V32.2781C37.1304 31.9189 37.4234 31.6259 37.7826 31.6259ZM29.9565 34.8868H31.2609C31.6201 34.8868 31.913 35.1798 31.913 35.539V36.1912C31.913 36.5504 31.6201 36.8433 31.2609 36.8433H29.9565C29.5973 36.8433 29.3043 36.5504 29.3043 36.1912V35.539C29.3043 35.1798 29.5973 34.8868 29.9565 34.8868ZM33.8696 34.8868H35.1739C35.5331 34.8868 35.8261 35.1798 35.8261 35.539V36.1912C35.8261 36.5504 35.5331 36.8433 35.1739 36.8433H33.8696C33.5104 36.8433 33.2174 36.5504 33.2174 36.1912V35.539C33.2174 35.1798 33.5104 34.8868 33.8696 34.8868ZM37.7826 34.8868H39.087C39.4462 34.8868 39.7391 35.1798 39.7391 35.539V36.1912C39.7391 36.5504 39.4462 36.8433 39.087 36.8433H37.7826C37.4234 36.8433 37.1304 36.5504 37.1304 36.1912V35.539C37.1304 35.1798 37.4234 34.8868 37.7826 34.8868ZM29.9565 38.1477H31.2609C31.6201 38.1477 31.913 38.4406 31.913 38.7998V39.452C31.913 39.8112 31.6201 40.1042 31.2609 40.1042H29.9565C29.5973 40.1042 29.3043 39.8112 29.3043 39.452V38.7998C29.3043 38.4406 29.5973 38.1477 29.9565 38.1477ZM33.8696 38.1477H35.1739C35.5331 38.1477 35.8261 38.4406 35.8261 38.7998V39.452C35.8261 39.8112 35.5331 40.1042 35.1739 40.1042H33.8696C33.5104 40.1042 33.2174 39.8112 33.2174 39.452V38.7998C33.2174 38.4406 33.5104 38.1477 33.8696 38.1477ZM37.7826 38.1477H39.087C39.4462 38.1477 39.7391 38.4406 39.7391 38.7998V39.452C39.7391 39.8112 39.4462 40.1042 39.087 40.1042H37.7826C37.4234 40.1042 37.1304 39.8112 37.1304 39.452V38.7998C37.1304 38.4406 37.4234 38.1477 37.7826 38.1477Z" fill="#3D6396"/>
</g>
<defs>
<clipPath id="clip0_226_1768">
<rect width="54.834" height="54.834" fill="white"/>
</clipPath>
</defs>
</svg>
