<svg xmlns="http://www.w3.org/2000/svg" width="863.569" height="1497.576" viewBox="0 0 863.569 1497.576"><defs><style>.a{fill:#698037;}.b{fill:#443f34;}</style></defs><path class="a" d="M359.59,152.442c-3.966,11.331-3.984,28.71,1.177,40.023,3.081,6.754,12.856,14.27,20.458,13.766a9.757,9.757,0,0,0,2.025-.353,62.417,62.417,0,0,0-3.449-9.944l-5.66-14.164s3.812,6.618,7.627,13.237c1.621,3.436,3.242,6.86,4.468,9.462,5.96-4.241,7.17-15.072,5.088-21.69a23.656,23.656,0,0,0-1.324-3.3C384.168,167.665,370.4,163.78,359.59,152.442Z" transform="translate(-3.323 209.186)"/><path class="a" d="M258.368,85.536c-1.064,11.943,3.187,28.808,10.975,38.55,4.647,5.817,15.977,10.768,23.228,8.461a9.962,9.962,0,0,0,1.873-.827,62.9,62.9,0,0,0-5.786-8.822c-4.483-6.195-8.973-12.39-8.973-12.39l10.655,11.018c2.415,2.947,4.831,5.882,6.656,8.111,4.742-5.542,3.255-16.335-.391-22.258a23.868,23.868,0,0,0-2.093-2.882C285.953,94.429,271.639,93.952,258.368,85.536Z" transform="translate(-153.223 107.404)"/><path class="a" d="M277.67,86.649c-1.175,10.708,2.335,25.934,9.152,34.826,4.072,5.307,14.159,9.956,20.715,8.015a8.941,8.941,0,0,0,1.7-.708,56.481,56.481,0,0,0-5.037-8.03c-3.913-5.643-7.834-11.288-7.834-11.288s4.685,5.045,9.369,10.088c2.118,2.69,4.233,5.368,5.834,7.4,4.359-4.894,3.222-14.621.053-20a21.594,21.594,0,0,0-1.825-2.627C302.288,95.128,289.437,94.445,277.67,86.649Z" transform="translate(-123.954 109.097)"/><path class="a" d="M295.318,46.143c-4.722,11.043-5.917,28.382-1.528,40.01,2.615,6.944,11.863,15.082,19.482,15.082a10.053,10.053,0,0,0,2.04-.219,62.351,62.351,0,0,0-2.766-10.148c-2.345-7.251-4.692-14.5-4.692-14.5s3.356,6.853,6.717,13.708c1.384,3.535,2.771,7.06,3.817,9.735,6.235-3.84,8.174-14.568,6.543-21.307a23.224,23.224,0,0,0-1.1-3.373C318.811,62.95,305.338,58.167,295.318,46.143Z" transform="translate(-103.241 47.477)"/><path class="a" d="M524.286,202.413c-4.349-11.192-15.665-24.509-26.99-29.892-6.765-3.217-19.149-2.763-24.64,2.446a9.661,9.661,0,0,0-1.318,1.556,64.249,64.249,0,0,0,9.122,5.423c6.782,3.628,13.57,7.251,13.57,7.251s-7.234-2.647-14.47-5.292c-3.482-1.6-6.954-3.194-9.588-4.407-1.8,7.032,4.337,16.091,10.244,19.835a24.072,24.072,0,0,0,3.164,1.682C495.546,206.361,508.622,200.595,524.286,202.413Z" transform="translate(168.441 236.641)"/><path class="a" d="M571.306,199.8c-8.628-8.439-24.489-15.985-37.06-16.3-7.506-.194-18.607,5.242-21.441,12.218a9.726,9.726,0,0,0-.552,1.951,64.6,64.6,0,0,0,10.574,1.248c7.692.555,15.387,1.107,15.387,1.107s-7.695.519-15.392,1.044c-3.845-.048-7.672-.091-10.582-.129,1.293,7.143,10.66,12.911,17.6,13.927a24.531,24.531,0,0,0,3.585.25C546.749,215.057,556.266,204.5,571.306,199.8Z" transform="translate(233.23 256.43)"/><path class="a" d="M475.22,216.9c-3.081-11.593-12.846-26.055-23.511-32.633-6.366-3.933-18.723-4.823-24.759-.237a9.863,9.863,0,0,0-1.485,1.4,63.84,63.84,0,0,0,8.464,6.381c6.336,4.342,12.679,8.676,12.679,8.676s-6.9-3.414-13.791-6.825c-3.285-1.969-6.56-3.928-9.044-5.421-2.567,6.8,2.521,16.466,7.977,20.826a24.1,24.1,0,0,0,2.96,2.014C446.21,217.713,459.845,213.4,475.22,216.9Z" transform="translate(97.607 252.541)"/><path class="a" d="M431.5,156.281c-11.948,2.168-27.288,10.7-34.728,20.7-4.442,5.973-6.263,18.067-2.08,24.348a9.683,9.683,0,0,0,1.314,1.566,63.681,63.681,0,0,0,7.075-7.856c4.853-5.912,9.707-11.832,9.707-11.832s-3.961,6.533-7.922,13.068c-2.234,3.083-4.463,6.159-6.149,8.494,6.679,3.031,16.827-1.258,21.638-6.3a23.974,23.974,0,0,0,2.254-2.763C430.165,184.885,426.817,171.144,431.5,156.281Z" transform="translate(50.827 215.026)"/><path class="a" d="M572.724,125.407c-12.069-1.364-29.267,2.39-39.334,9.815-6.013,4.432-11.333,15.481-9.182,22.691a9.67,9.67,0,0,0,.789,1.878,64.582,64.582,0,0,0,9.092-5.479l12.783-8.529L535.424,156c-3.046,2.309-6.084,4.611-8.383,6.356,5.489,4.823,16.461,3.641,22.553.2a22.879,22.879,0,0,0,2.973-1.992C562.994,152.387,563.851,138.278,572.724,125.407Z" transform="translate(250.694 167.638)"/><path class="a" d="M594.7,159.4c-8.179-8.865-23.629-17.205-36.165-18.156-7.481-.565-18.854,4.3-22.041,11.126a9.65,9.65,0,0,0-.663,1.921,65.05,65.05,0,0,0,10.5,1.78l15.317,1.881-15.43.262c-3.835-.24-7.66-.482-10.554-.661.918,7.2,9.969,13.431,16.85,14.795a23.248,23.248,0,0,0,3.565.431C569.388,173.4,579.438,163.333,594.7,159.4Z" transform="translate(268.864 192.087)"/><path class="a" d="M571.069,171.9c-8.182-8.865-23.632-17.208-36.165-18.156-7.483-.567-18.857,4.3-22.043,11.126a9.478,9.478,0,0,0-.661,1.919,64.459,64.459,0,0,0,10.5,1.78c7.657.943,15.317,1.883,15.317,1.883s-7.718.129-15.433.262c-3.835-.24-7.66-.482-10.552-.661.915,7.2,9.964,13.431,16.85,14.795a23.774,23.774,0,0,0,3.563.431C545.751,185.891,555.8,175.826,571.069,171.9Z" transform="translate(232.909 211.095)"/><path class="a" d="M479.071,225.077c2.378-10.892.431-26.93-5.607-36.8-3.6-5.887-13.469-11.752-20.425-10.448a9.673,9.673,0,0,0-1.83.545,58.755,58.755,0,0,0,4.3,8.8c3.411,6.222,6.825,12.448,6.825,12.448s-4.263-5.688-8.529-11.376c-1.886-2.993-3.764-5.978-5.189-8.234-5.025,4.569-4.914,14.689-2.246,20.561a21.3,21.3,0,0,0,1.6,2.894C454.677,213.734,467.816,215.8,479.071,225.077Z" transform="translate(130.258 247.534)"/><path class="a" d="M503.187,147.326c-10.471-.827-25.223,2.915-33.7,9.626-5.068,4.006-9.331,13.711-7.261,19.883a8.742,8.742,0,0,0,.739,1.6,55.41,55.41,0,0,0,7.7-5c5.391-3.87,10.794-7.74,10.794-7.74s-4.793,4.579-9.588,9.165c-2.562,2.085-5.118,4.163-7.06,5.738,4.891,4.006,14.341,2.665,19.5-.487a20.573,20.573,0,0,0,2.509-1.808C495.583,170.931,495.908,158.71,503.187,147.326Z" transform="translate(156.325 201.231)"/><path class="a" d="M506.681,231.194c.126-10.819-4.861-25.717-12.541-33.959-4.586-4.924-15.128-8.625-21.491-6.061a9.347,9.347,0,0,0-1.639.875,57.345,57.345,0,0,0,5.822,7.556c4.463,5.267,8.93,10.544,8.93,10.544l-10.347-9.2c-2.383-2.486-4.753-4.967-6.555-6.853-3.883,5.31-1.8,14.926,1.891,20.009a20.935,20.935,0,0,0,2.085,2.451C481.232,225.045,494.153,224.51,506.681,231.194Z" transform="translate(164.071 266.834)"/><path class="a" d="M542.581,137.669c-10.473-.827-25.225,2.915-33.709,9.626-5.063,4.006-9.326,13.711-7.259,19.88a8.686,8.686,0,0,0,.739,1.6,55.42,55.42,0,0,0,7.7-5c5.4-3.868,10.791-7.74,10.791-7.74s-4.79,4.579-9.586,9.165c-2.562,2.085-5.118,4.163-7.06,5.736,4.891,4.009,14.341,2.667,19.507-.484a20.551,20.551,0,0,0,2.506-1.808C534.977,161.271,535.3,149.053,542.581,137.669Z" transform="translate(216.252 186.54)"/><path class="a" d="M413.427,129.123c-10.564,2.627-23.786,11.141-29.852,20.521-3.626,5.6-4.541,16.524-.426,21.9a8.454,8.454,0,0,0,1.263,1.326,56.375,56.375,0,0,0,5.867-7.435l7.992-11.144s-3.164,6.071-6.321,12.145c-1.818,2.889-3.628,5.769-5,7.955,6.152,2.327,14.981-2.093,18.99-6.883a21.669,21.669,0,0,0,1.856-2.6C413.918,154.795,410.111,142.692,413.427,129.123Z" transform="translate(32.724 173.711)"/><path class="a" d="M489.23,113.626c-10.592-2.536-26.312-1.084-36.11,4.422-5.852,3.283-11.82,12.531-10.725,19.184a8.543,8.543,0,0,0,.492,1.75,57.136,57.136,0,0,0,8.7-3.875c6.167-3.094,12.337-6.185,12.337-6.185s-5.665,3.916-11.331,7.836c-2.973,1.722-5.93,3.436-8.187,4.735,4.347,4.894,14.245,5.045,20.057,2.65a21.808,21.808,0,0,0,2.867-1.447C477.534,136.564,479.881,124.1,489.23,113.626Z" transform="translate(126.778 148.299)"/><path class="a" d="M521.293,119.332c-8.058-3.769-20.9-5.179-29.67-2.375-5.244,1.674-11.583,8.1-11.822,13.615a6.774,6.774,0,0,0,.1,1.482,46.777,46.777,0,0,0,7.629-1.679c5.458-1.467,10.922-2.932,10.922-2.932s-5.194,2.209-10.4,4.42c-2.67.893-5.327,1.783-7.352,2.456,2.662,4.629,10.564,6.374,15.624,5.408a18.711,18.711,0,0,0,2.542-.688C508.066,135.793,512.042,126.195,521.293,119.332Z" transform="translate(183.868 152.957)"/><path class="a" d="M498.721,54.413c-7.418-7.874-21.348-15.218-32.592-15.955-6.717-.444-16.865,4.024-19.666,10.171a8.5,8.5,0,0,0-.572,1.727,57.812,57.812,0,0,0,9.432,1.505c6.868.772,13.741,1.548,13.741,1.548s-6.911.187-13.829.376c-3.439-.182-6.868-.361-9.475-.5.892,6.442,9.066,11.953,15.249,13.118a22.247,22.247,0,0,0,3.2.353C476.148,67.191,485.068,58.074,498.721,54.413Z" transform="translate(132.095 35.74)"/><path class="a" d="M514.609,52.809c-11.215.164-26.493,5.612-34.819,13.59-4.972,4.763-8.5,15.5-5.673,21.844a8.619,8.619,0,0,0,.943,1.621,59.248,59.248,0,0,0,7.665-6.076c5.327-4.649,10.67-9.3,10.67-9.3s-4.619,5.343-9.24,10.69c-2.514,2.471-5.012,4.934-6.913,6.8,5.6,3.767,15.5,1.4,20.669-2.463a23.185,23.185,0,0,0,2.484-2.173C508.952,78.637,508.034,65.625,514.609,52.809Z" transform="translate(173.703 57.617)"/><path class="a" d="M532.177,87.482c-10.065-4.886-26.186-6.9-37.277-3.527-6.621,2.007-14.717,9.979-15.122,16.9a8.723,8.723,0,0,0,.091,1.868,59.7,59.7,0,0,0,9.629-1.972c6.893-1.747,13.791-3.489,13.791-3.489l-13.158,5.37c-3.376,1.072-6.737,2.143-9.293,2.952,3.258,5.875,13.161,8.209,19.542,7.087a22.678,22.678,0,0,0,3.21-.819C515.227,107.945,520.408,95.944,532.177,87.482Z" transform="translate(183.822 102.46)"/><path class="a" d="M488.429,84.411c-10.8,1.409-24.928,8.368-32.045,17-4.256,5.148-6.437,15.9-2.975,21.713a8.691,8.691,0,0,0,1.094,1.457,56.162,56.162,0,0,0,6.7-6.719l9.235-10.163s-3.847,5.673-7.695,11.348c-2.138,2.665-4.271,5.32-5.895,7.334,5.842,3.013,15.128-.378,19.668-4.682a21.7,21.7,0,0,0,2.146-2.372C485.925,109.967,483.553,97.512,488.429,84.411Z" transform="translate(141.123 105.692)"/><path class="a" d="M503.7,128.832c-8.693-1.616-21.385.217-29.1,5.093-4.606,2.907-9.056,10.657-7.876,16.01a6.792,6.792,0,0,0,.469,1.4,46.336,46.336,0,0,0,6.9-3.5c4.869-2.768,9.74-5.532,9.74-5.532l-8.857,6.83c-2.335,1.518-4.664,3.036-6.434,4.183,3.737,3.787,11.769,3.494,16.378,1.314a17.579,17.579,0,0,0,2.269-1.293C495.2,147.928,496.568,137.722,503.7,128.832Z" transform="translate(163.691 172.396)"/><path class="a" d="M465.55,147.76c-10.564,2.627-23.786,11.144-29.852,20.523-3.626,5.6-4.538,16.524-.426,21.9a8.906,8.906,0,0,0,1.261,1.324,56.691,56.691,0,0,0,5.872-7.433c3.991-5.572,7.99-11.147,7.99-11.147s-3.162,6.071-6.323,12.147c-1.815,2.887-3.623,5.766-5,7.952,6.152,2.33,14.981-2.09,18.99-6.881a21.693,21.693,0,0,0,1.856-2.6C466.044,173.432,462.235,161.329,465.55,147.76Z" transform="translate(112.019 202.063)"/><path class="a" d="M525.061,117.774c-10.564,2.625-23.786,11.141-29.854,20.521-3.625,5.6-4.536,16.524-.424,21.9a8.906,8.906,0,0,0,1.261,1.324,56.113,56.113,0,0,0,5.87-7.433c4-5.572,7.992-11.147,7.992-11.147s-3.164,6.071-6.323,12.147c-1.813,2.887-3.623,5.769-5,7.952,6.154,2.33,14.984-2.09,19-6.881a22.249,22.249,0,0,0,1.853-2.6C525.555,143.443,521.745,131.341,525.061,117.774Z" transform="translate(202.549 156.446)"/><path class="a" d="M424.184,141.542c-7.183,8.083-13.159,22.51-12.747,33.626.24,6.641,5.779,16.144,12.263,18.264a8.961,8.961,0,0,0,1.8.383,55.08,55.08,0,0,0,.55-9.409c.081-6.823.159-13.65.159-13.65s.9,6.767,1.793,13.539c.169,3.394.338,6.78.464,9.349,6.406-1.535,11.121-10.12,11.666-16.31a21.625,21.625,0,0,0,.028-3.182C439.372,162.39,429.264,154.567,424.184,141.542Z" transform="translate(79.85 192.604)"/><path class="a" d="M441.339,125.669c-7.95,7.349-15.329,21.128-16.028,32.229-.421,6.631,4.147,16.628,10.39,19.363a8.748,8.748,0,0,0,1.752.555,55.056,55.056,0,0,0,1.483-9.311c.759-6.78,1.515-13.569,1.515-13.569s.214,6.823.436,13.65c-.169,3.391-.335,6.777-.464,9.349,6.525-.913,12.072-9,13.227-15.1a21.662,21.662,0,0,0,.345-3.162C454.381,147.884,445.106,139.122,441.339,125.669Z" transform="translate(100.947 168.457)"/><path class="a" d="M366.661,125.881c-8.572,8.429-16.29,23.975-16.681,36.331-.234,7.375,5.184,18.317,12.213,21.146a9.725,9.725,0,0,0,1.964.557,61.808,61.808,0,0,0,1.324-10.385c.605-7.559,1.21-15.123,1.21-15.123s.474,7.569.961,15.14c-.073,3.774-.144,7.539-.2,10.4,7.216-1.228,13.1-10.4,14.164-17.218a23.371,23.371,0,0,0,.275-3.52C381.915,150.113,371.313,140.693,366.661,125.881Z" transform="translate(-13.621 168.779)"/><path class="a" d="M450.786,74.025c-9.12,5.809-18.842,18.014-21.537,28.783-1.6,6.427,1.072,17.026,6.7,20.808a8.7,8.7,0,0,0,1.619.855,55.385,55.385,0,0,0,3.126-8.87c1.972-6.515,3.938-13.037,3.938-13.037s-1.021,6.727-2.032,13.459c-.779,3.3-1.558,6.586-2.146,9.084,6.563.255,13.466-6.7,15.693-12.483a20.591,20.591,0,0,0,.913-3.038C459.562,98.1,452.051,87.879,450.786,74.025Z" transform="translate(106.28 89.893)"/><path class="a" d="M428.959,70.8c-10.889-2.473-27-.789-36.977,4.982-5.958,3.444-11.963,13-10.751,19.815a8.88,8.88,0,0,0,.522,1.788,58.963,58.963,0,0,0,8.88-4.082c6.283-3.247,12.574-6.495,12.574-6.495s-5.764,4.082-11.52,8.179c-3.031,1.8-6.044,3.593-8.335,4.957,4.518,4.962,14.676,4.995,20.6,2.466a22.347,22.347,0,0,0,2.917-1.518C417.262,94.474,419.509,81.669,428.959,70.8Z" transform="translate(33.691 83.308)"/><path class="a" d="M463.561,17.462c-11.156-.6-26.733,3.789-35.567,11.162-5.27,4.4-9.53,14.83-7.15,21.337a8.918,8.918,0,0,0,.827,1.674,58.272,58.272,0,0,0,8.038-5.524l11.257-8.524s-4.964,5-9.929,10.009c-2.67,2.282-5.33,4.558-7.349,6.291,5.315,4.125,15.324,2.438,20.725-1.054a22.283,22.283,0,0,0,2.617-1.989C456.143,42.761,456.138,29.766,463.561,17.462Z" transform="translate(93.162 3.764)"/><path class="a" d="M451.067,41.1c-9.659-1.326-23.538,1.354-31.773,7.13-4.911,3.444-9.389,12.21-7.811,18.04a8.065,8.065,0,0,0,.6,1.518,51.409,51.409,0,0,0,7.407-4.223l10.423-6.6s-4.692,3.989-9.379,7.985c-2.491,1.793-4.979,3.58-6.863,4.942,4.311,3.974,13.151,3.232,18.1.587A19.772,19.772,0,0,0,434.2,68.94C442.732,62.571,443.693,51.268,451.067,41.1Z" transform="translate(79.462 39.301)"/><path class="a" d="M460.286,26.274c-9.193,2.486-20.6,10.181-25.732,18.5-3.063,4.964-3.656,14.535.045,19.172a7.736,7.736,0,0,0,1.127,1.135,49.184,49.184,0,0,0,5-6.611c3.391-4.947,6.78-9.893,6.78-9.893s-2.652,5.365-5.3,10.738c-1.538,2.559-3.068,5.111-4.226,7.049,5.426,1.924,13.065-2.108,16.476-6.369a18.187,18.187,0,0,0,1.578-2.3C461.2,48.721,457.642,38.207,460.286,26.274Z" transform="translate(111.219 17.251)"/><path class="a" d="M405.637,9.011c-3.716,9.619-4.205,24.529-.086,34.375,2.461,5.875,10.642,12.581,17.177,12.352a8.535,8.535,0,0,0,1.75-.247,53.156,53.156,0,0,0-2.688-8.625c-2.234-6.152-4.465-12.3-4.465-12.3s3.081,5.779,6.18,11.56c1.3,2.99,2.589,5.973,3.575,8.237,5.227-3.482,6.56-12.745,4.957-18.473a20.377,20.377,0,0,0-1.046-2.862C426.309,22.729,414.6,19.031,405.637,9.011Z" transform="translate(66.517 -9.011)"/><path class="a" d="M345.708,23.853c-8.388,6.855-16.608,20.163-17.989,31.206C326.892,61.649,330.838,71.9,336.9,75a8.938,8.938,0,0,0,1.714.661,55.625,55.625,0,0,0,2.055-9.205c1.172-6.722,2.345-13.448,2.345-13.448s-.2,6.818-.4,13.645c-.381,3.376-.761,6.744-1.046,9.3,6.568-.512,12.609-8.257,14.132-14.278a20.792,20.792,0,0,0,.545-3.136C357.356,46.809,348.64,37.508,345.708,23.853Z" transform="translate(-47.642 13.568)"/><path class="a" d="M307.343,48.523c-1.427,10.657,1.714,25.929,8.31,34.955,3.936,5.385,13.887,10.257,20.473,8.469a9.43,9.43,0,0,0,1.714-.666A56.242,56.242,0,0,0,333,83.15c-3.772-5.718-7.546-11.434-7.546-11.434s4.546,5.136,9.109,10.272c2.045,2.736,4.087,5.459,5.643,7.523,4.463-4.78,3.555-14.512.524-19.948a20.82,20.82,0,0,0-1.76-2.665C331.7,57.544,318.9,56.571,307.343,48.523Z" transform="translate(-78.987 51.097)"/><path class="a" d="M342.093,102.86c-3.85,11-3.868,27.857,1.142,38.838,2.993,6.553,12.478,13.847,19.85,13.358a9.586,9.586,0,0,0,1.964-.34,59.732,59.732,0,0,0-3.343-9.649l-5.491-13.746s3.7,6.422,7.4,12.846c1.573,3.333,3.144,6.656,4.337,9.182,5.781-4.12,6.954-14.628,4.932-21.053A22.663,22.663,0,0,0,371.6,129.1C365.944,117.632,352.584,113.86,342.093,102.86Z" transform="translate(-29.814 133.758)"/><path class="a" d="M285.672,130.736c-.739,11.61,3.8,27.868,11.6,37.131,4.654,5.532,15.768,10.062,22.742,7.655a9.784,9.784,0,0,0,1.8-.847,60.845,60.845,0,0,0-5.832-8.421c-4.5-5.9-9-11.8-9-11.8s5.295,5.217,10.6,10.433c2.418,2.8,4.831,5.59,6.661,7.71,4.46-5.491,2.751-15.929-.933-21.587a23.229,23.229,0,0,0-2.1-2.743C312.652,138.7,298.758,138.58,285.672,130.736Z" transform="translate(-111.559 176.165)"/><path class="a" d="M257.141,132.015c-.686,10.768,3.52,25.843,10.751,34.438,4.316,5.126,14.621,9.331,21.09,7.095a8.933,8.933,0,0,0,1.669-.787,56.3,56.3,0,0,0-5.408-7.808c-4.175-5.469-8.35-10.945-8.35-10.945s4.911,4.838,9.833,9.677c2.244,2.594,4.478,5.181,6.177,7.15,4.135-5.093,2.552-14.772-.865-20.021a21.756,21.756,0,0,0-1.946-2.544C282.159,139.4,269.273,139.289,257.141,132.015Z" transform="translate(-154.954 178.111)"/><path class="a" d="M243.846,122.568c-4.695,9.745-6.47,25.283-2.993,35.913,2.075,6.344,10.057,14.028,16.9,14.323a8.975,8.975,0,0,0,1.846-.116,55.215,55.215,0,0,0-2.078-9.23c-1.813-6.611-3.626-13.227-3.626-13.227s2.736,6.293,5.481,12.589l3.041,8.905c5.756-3.21,7.934-12.778,6.739-18.9a21.252,21.252,0,0,0-.85-3.076C264.291,138.6,252.368,133.77,243.846,122.568Z" transform="translate(-182.393 163.739)"/><path class="a" d="M358.212,77.489c-5.829,10.206-8.935,26.92-5.98,38.689,1.767,7.032,9.831,15.952,17.233,16.784a9.878,9.878,0,0,0,2,.01,61,61,0,0,0-1.546-10.163c-1.462-7.3-2.93-14.6-2.93-14.6s2.488,7.029,4.984,14.056c.948,3.58,1.9,7.15,2.615,9.868,6.485-3.051,9.573-13.254,8.746-19.976a23.158,23.158,0,0,0-.686-3.406C379.144,96.378,366.6,90.259,358.212,77.489Z" transform="translate(-11.911 95.162)"/><path class="a" d="M299.331,131.991c5.247,9.394,16.945,19.832,27.658,23.233,6.4,2.027,17.326.124,21.549-5.164a8.643,8.643,0,0,0,.973-1.535,57.571,57.571,0,0,0-8.766-3.709c-6.462-2.39-12.934-4.78-12.934-4.78s6.744,1.472,13.494,2.94c3.285,1,6.555,1.987,9.049,2.746.721-6.457-5.849-13.746-11.552-16.345a21.5,21.5,0,0,0-3.02-1.114C324.327,125,313.45,131.7,299.331,131.991Z" transform="translate(-90.661 171.04)"/><path class="a" d="M294.861,185.164c9,5.64,24.053,9.175,34.892,7.118,6.48-1.233,14.969-7.955,16.076-14.467a8.534,8.534,0,0,0,.1-1.775,56.782,56.782,0,0,0-9.314.89c-6.7.948-13.413,1.9-13.413,1.9s6.51-1.871,13.015-3.749l9.1-1.848c-2.466-5.887-11.6-9.1-17.75-8.686a21.25,21.25,0,0,0-3.129.446C313.022,167.515,306.867,178.341,294.861,185.164Z" transform="translate(-97.461 227.55)"/><path class="a" d="M265.422,175.163c7.879,4.937,21.047,8.033,30.533,6.23,5.668-1.079,13.1-6.961,14.066-12.662a7.549,7.549,0,0,0,.088-1.551,49.871,49.871,0,0,0-8.149.779c-5.864.829-11.737,1.667-11.737,1.667s5.693-1.636,11.386-3.283c2.892-.585,5.769-1.17,7.962-1.616-2.156-5.153-10.151-7.967-15.531-7.6a19.1,19.1,0,0,0-2.738.391C281.316,159.723,275.931,169.2,265.422,175.163Z" transform="translate(-142.246 216.263)"/><path class="a" d="M263.759,206.455c10.075,2.151,24.539.31,33.089-5.264,5.108-3.333,9.74-12.412,8.06-18.8a9.711,9.711,0,0,0-.625-1.669,48.323,48.323,0,0,0-7.708,3.979c-5.418,3.147-10.841,6.3-10.841,6.3s4.879-3.933,9.747-7.869l7.133-4.8c-4.516-4.594-13.726-4.463-18.882-1.994a18.383,18.383,0,0,0-2.529,1.472C272.339,184.014,271.4,196.093,263.759,206.455Z" transform="translate(-144.776 242.968)"/><path class="a" d="M308,107.466c1.311,10.151,7.98,23.458,16.272,30.18,4.954,4.019,15.319,6.114,20.944,2.884a7.772,7.772,0,0,0,1.407-1.029,53.626,53.626,0,0,0-6.454-6.318l-9.777-8.721s5.469,3.641,10.93,7.279c2.559,2.022,5.111,4.034,7.049,5.567,2.932-5.476-.3-14.215-4.432-18.5a21.2,21.2,0,0,0-2.284-2.032C332.648,109.919,320.62,112.1,308,107.466Z" transform="translate(-77.476 140.765)"/><path class="a" d="M282.018,112.98c3.1,9.762,12.031,21.706,21.39,26.887,5.592,3.1,16.171,3.363,21.133-.792a7.909,7.909,0,0,0,1.2-1.253,54,54,0,0,0-7.481-5.1l-11.177-6.891s6.031,2.635,12.054,5.269c2.879,1.548,5.751,3.086,7.932,4.258,1.911-5.9-2.829-13.94-7.657-17.44a21.617,21.617,0,0,0-2.612-1.606C306.724,111.122,295.267,115.347,282.018,112.98Z" transform="translate(-116.999 149.153)"/><path class="a" d="M240.8,99.921c-.275,10.483,4.374,24.991,11.714,33.076,4.382,4.836,14.553,8.555,20.76,6.149a8.068,8.068,0,0,0,1.588-.824,54.523,54.523,0,0,0-5.539-7.395c-4.258-5.169-8.524-10.34-8.524-10.34s4.964,4.528,9.919,9.054c2.272,2.443,4.543,4.876,6.26,6.727,3.837-5.1,1.941-14.447-1.563-19.421a21.644,21.644,0,0,0-1.992-2.41C265.388,106.2,252.857,106.554,240.8,99.921Z" transform="translate(-179.715 129.287)"/><path class="a" d="M337.332,77.749c-5.932,9.218-9.641,24.623-7.476,35.719,1.3,6.626,8.36,15.314,15.208,16.439a8.224,8.224,0,0,0,1.863.1,56.262,56.262,0,0,0-.94-9.528c-1-6.86-2.007-13.731-2.007-13.731s1.974,6.666,3.948,13.325c.706,3.378,1.412,6.747,1.946,9.309,6.187-2.526,9.563-11.873,9.124-18.166a22.047,22.047,0,0,0-.469-3.207C355.876,96.333,344.495,90.038,337.332,77.749Z" transform="translate(-45.173 95.558)"/><path class="a" d="M284.032,68.737c.146,10.917,5.585,25.815,13.549,33.934,4.76,4.846,15.491,8.3,21.844,5.547a7.994,7.994,0,0,0,1.619-.92,57.117,57.117,0,0,0-6.069-7.465c-4.642-5.2-9.3-10.41-9.3-10.41l10.7,9.021c2.463,2.446,4.924,4.884,6.79,6.742,3.777-5.456,1.419-15.1-2.436-20.135a22.634,22.634,0,0,0-2.173-2.428C309.86,74.279,296.84,75.156,284.032,68.737Z" transform="translate(-113.935 81.848)"/><path class="a" d="M263.774,111.635c.146,10.917,5.585,25.815,13.549,33.934,4.76,4.846,15.488,8.3,21.844,5.547a8.153,8.153,0,0,0,1.621-.92,57.371,57.371,0,0,0-6.071-7.465c-4.642-5.2-9.3-10.41-9.3-10.41l10.693,9.021c2.466,2.446,4.927,4.884,6.792,6.742,3.777-5.456,1.419-15.1-2.436-20.135a22.388,22.388,0,0,0-2.173-2.428C289.6,117.177,276.582,118.054,263.774,111.635Z" transform="translate(-144.753 147.107)"/><path class="a" d="M315.369,193.023c9.414,5.733,25.074,9.2,36.289,6.916,6.7-1.364,15.41-8.446,16.461-15.218a7.854,7.854,0,0,0,.081-1.841,58.136,58.136,0,0,0-9.639,1.051c-6.941,1.072-13.89,2.153-13.89,2.153s6.729-2.032,13.446-4.064c3.416-.741,6.823-1.48,9.412-2.04-2.64-6.074-12.153-9.281-18.521-8.772a22.758,22.758,0,0,0-3.245.507C333.961,174.484,327.726,185.8,315.369,193.023Z" transform="translate(-66.263 237.655)"/><path class="a" d="M337.583,227.52c12.347,1.243,29.869-2.824,40.06-10.544,6.084-4.609,11.368-15.967,9.074-23.309a8.9,8.9,0,0,0-.835-1.9,64.606,64.606,0,0,0-9.21,5.716c-6.475,4.435-12.952,8.88-12.952,8.88s5.786-5.3,11.557-10.6c3.081-2.4,6.154-4.785,8.489-6.6-5.675-4.858-16.872-3.5-23.047.091a25.239,25.239,0,0,0-3.023,2.078C347.156,199.827,346.473,214.258,337.583,227.52Z" transform="translate(-32.47 260.267)"/><path class="a" d="M451.439,224.855c-2.33-11.061-10.824-25.129-20.533-31.828-5.8-3.994-17.384-5.421-23.289-1.389a8.154,8.154,0,0,0-1.46,1.251,58.991,58.991,0,0,0,7.652,6.4c5.751,4.379,11.515,8.764,11.515,8.764l-12.654-7.082c-3-2-5.978-4.006-8.245-5.524-2.753,6.27,1.571,15.612,6.49,19.968a22.752,22.752,0,0,0,2.688,2.045C424.1,224.25,437.151,220.831,451.439,224.855Z" transform="translate(67.909 265.153)"/><path class="a" d="M239.811,194.143c11.9,1.2,28.79-2.723,38.613-10.161,5.862-4.442,10.957-15.387,8.744-22.467a8.489,8.489,0,0,0-.8-1.828,62.037,62.037,0,0,0-8.877,5.509c-6.24,4.274-12.485,8.56-12.485,8.56s5.577-5.108,11.142-10.214c2.968-2.309,5.93-4.614,8.182-6.364-5.469-4.682-16.262-3.376-22.215.086a24.389,24.389,0,0,0-2.912,2C249.039,167.453,248.381,181.363,239.811,194.143Z" transform="translate(-181.207 211.778)"/><path class="a" d="M244.517,213.57c11.636,1.535,28.331-1.8,38.2-8.8,5.892-4.183,11.23-14.767,9.278-21.779a8.353,8.353,0,0,0-.731-1.818,61.135,61.135,0,0,0-8.88,5.136c-6.258,4-12.516,8.023-12.516,8.023s5.63-4.843,11.247-9.687l8.227-6c-5.224-4.755-15.851-3.8-21.8-.582a24.6,24.6,0,0,0-2.922,1.873C254.4,187.661,253.319,201.286,244.517,213.57Z" transform="translate(-174.048 244.05)"/><path class="a" d="M216.69,118.4c-.92,11.55,3.363,27.82,10.983,37.158,4.551,5.58,15.554,10.264,22.543,7.96a8.491,8.491,0,0,0,1.8-.819,60.153,60.153,0,0,0-5.68-8.469c-4.392-5.948-8.8-11.9-8.8-11.9s5.206,5.285,10.413,10.557c2.362,2.824,4.72,5.638,6.515,7.781,4.531-5.406,2.983-15.826-.595-21.511a23.752,23.752,0,0,0-2.055-2.778C243.444,126.73,229.6,126.408,216.69,118.4Z" transform="translate(-216.567 157.399)"/><path class="a" d="M218.38,159.848c8.081,7.3,22.669,13.539,34.009,13.373,6.772-.1,16.585-5.393,18.884-11.789a7.562,7.562,0,0,0,.421-1.78,57.687,57.687,0,0,0-9.578-.739c-6.954-.229-13.917-.451-13.917-.451s6.928-.741,13.849-1.49c3.464-.1,6.913-.194,9.54-.262-1.427-6.4-10.08-11.257-16.376-11.928a22.977,22.977,0,0,0-3.25-.1C239.962,145.212,231.765,155.078,218.38,159.848Z" transform="translate(-213.809 197.349)"/><path class="a" d="M281.165,208.122c10.5,3.109,26.38,2.468,36.518-2.549,6.056-2.993,12.558-11.971,11.81-18.718a7.374,7.374,0,0,0-.4-1.785,57.462,57.462,0,0,0-8.948,3.444c-6.366,2.778-12.735,5.569-12.735,5.569s5.912-3.643,11.815-7.286c3.076-1.573,6.142-3.142,8.477-4.332-4.1-5.146-14.036-5.811-20-3.714a22.7,22.7,0,0,0-2.975,1.3C294.15,185.686,291.116,198.085,281.165,208.122Z" transform="translate(-118.296 247.516)"/><path class="a" d="M533.887,226.02c-2.007-10.08-9.593-22.959-18.352-29.143-5.232-3.694-15.755-5.106-21.169-1.5a7.383,7.383,0,0,0-1.334,1.124,53.869,53.869,0,0,0,6.893,5.895c5.181,4.044,10.385,8.088,10.385,8.088s-5.726-3.288-11.441-6.565c-2.7-1.856-5.391-3.7-7.445-5.113-2.559,5.685,1.278,14.217,5.706,18.229a21.414,21.414,0,0,0,2.423,1.888C509.033,225.2,520.935,222.218,533.887,226.02Z" transform="translate(200.313 271.317)"/><path class="a" d="M320.731,144.047c2.872,10.541,11.865,23.655,21.615,29.582,5.824,3.537,17.089,4.274,22.558.058a7.915,7.915,0,0,0,1.336-1.286,57.5,57.5,0,0,0-7.748-5.756c-5.8-3.916-11.608-7.829-11.608-7.829s6.311,3.073,12.616,6.139c3,1.77,5.993,3.535,8.265,4.879,2.3-6.2-2.4-14.976-7.39-18.915a23.336,23.336,0,0,0-2.713-1.828C347.146,143.127,334.749,147.143,320.731,144.047Z" transform="translate(-58.106 196.415)"/><path class="a" d="M391.422,55.552c-11.691,2.125-26.7,10.494-33.974,20.289-4.344,5.842-6.124,17.684-2.02,23.834a8.834,8.834,0,0,0,1.278,1.525,61.449,61.449,0,0,0,6.923-7.69c4.742-5.791,9.5-11.59,9.5-11.59s-3.875,6.4-7.75,12.8c-2.183,3.02-4.359,6.028-6.011,8.318,6.535,2.96,16.464-1.24,21.171-6.18a23.293,23.293,0,0,0,2.214-2.705C390.134,83.551,386.851,70.1,391.422,55.552Z" transform="translate(-8.843 61.79)"/><path class="a" d="M381.63,28.289c-10.526,4.294-22.9,15.095-27.737,25.7-2.894,6.336-2.168,17.785,2.925,22.739a8.415,8.415,0,0,0,1.51,1.175,58.3,58.3,0,0,0,4.929-8.57c3.278-6.361,6.555-12.732,6.555-12.732s-2.342,6.762-4.677,13.519c-1.435,3.263-2.864,6.512-3.951,8.981,6.727,1.49,15.181-4.4,18.594-9.962a22.36,22.36,0,0,0,1.528-2.973C386.088,54.782,380.287,42.827,381.63,28.289Z" transform="translate(-10.228 20.316)"/><path class="a" d="M409.02,37.867c-9.974,5.426-21.05,17.525-24.65,28.6-2.161,6.613-.139,17.909,5.484,22.273a8.7,8.7,0,0,0,1.631,1,58.055,58.055,0,0,0,3.926-9.064c2.539-6.681,5.073-13.375,5.073-13.375s-1.558,6.979-3.114,13.953c-1.054,3.4-2.108,6.787-2.91,9.359,6.858.739,14.588-6.054,17.351-11.951a21.709,21.709,0,0,0,1.177-3.121C416.45,63.7,409.335,52.46,409.02,37.867Z" transform="translate(37.416 34.887)"/><path class="a" d="M397.293,86c-8.817,3.661-19.146,12.8-23.148,21.733-2.393,5.332-1.719,14.941,2.582,19.076a7.56,7.56,0,0,0,1.276.981,49.031,49.031,0,0,0,4.09-7.226c2.718-5.358,5.436-10.728,5.436-10.728s-1.929,5.693-3.853,11.381c-1.185,2.746-2.37,5.484-3.268,7.561,5.658,1.215,12.722-3.782,15.559-8.466a18.48,18.48,0,0,0,1.263-2.5C401.183,108.22,396.246,98.211,397.293,86Z" transform="translate(21.068 108.11)"/><path class="a" d="M402.454,18.04c-9.424,5.126-19.885,16.555-23.286,27.02-2.037,6.245-.131,16.918,5.179,21.04a8.454,8.454,0,0,0,1.543.948,55.016,55.016,0,0,0,3.711-8.562c2.4-6.311,4.79-12.634,4.79-12.634s-1.472,6.593-2.942,13.181c-1,3.207-1.994,6.409-2.748,8.84,6.475.7,13.781-5.718,16.391-11.29a21.357,21.357,0,0,0,1.114-2.947C409.474,42.446,402.749,31.826,402.454,18.04Z" transform="translate(29.577 4.725)"/><path class="a" d="M351.494,42.6C344.641,50.152,338.87,63.7,339.155,74.19c.159,6.26,5.292,15.276,11.394,17.339a7.3,7.3,0,0,0,1.692.371,52.182,52.182,0,0,0,.605-8.865c.141-6.434.275-12.874.275-12.874s.782,6.4,1.563,12.79c.131,3.2.255,6.389.35,8.817,6.054-1.387,10.584-9.442,11.154-15.271a20.978,20.978,0,0,0,.066-3C365.616,62.4,356.164,54.925,351.494,42.6Z" transform="translate(-30.093 42.081)"/><path class="a" d="M315.926,72.247c-4.937,9.117-7.329,23.917-4.48,34.236,1.694,6.165,8.988,13.869,15.534,14.454a7.65,7.65,0,0,0,1.77-.035,52.822,52.822,0,0,0-1.576-8.925c-1.435-6.4-2.884-12.818-2.884-12.818s2.345,6.149,4.687,12.3c.913,3.139,1.818,6.268,2.506,8.65,5.658-2.816,8.171-11.878,7.3-17.788a20.54,20.54,0,0,0-.671-2.993C334.767,88.489,323.573,83.343,315.926,72.247Z" transform="translate(-74.091 87.188)"/><path class="a" d="M305.288,29.755c.441,9.967,5.824,23.418,13.332,30.606,4.473,4.3,14.371,7.163,20.094,4.473a7.393,7.393,0,0,0,1.455-.887,52.157,52.157,0,0,0-5.753-6.651c-4.382-4.619-8.779-9.243-8.779-9.243s5.01,3.968,10.014,7.937c2.325,2.166,4.632,4.324,6.391,5.968,3.293-5.08.87-13.824-2.791-18.312a20.264,20.264,0,0,0-2.05-2.161C329.026,34.107,317.163,35.264,305.288,29.755Z" transform="translate(-81.599 22.546)"/><path class="a" d="M446.346,129.224c-3.119,9.034-3.058,22.868,1.1,31.849,2.476,5.365,10.287,11.313,16.338,10.879a6.993,6.993,0,0,0,1.606-.29,48.878,48.878,0,0,0-2.783-7.9c-2.279-5.625-4.568-11.252-4.568-11.252s3.068,5.257,6.132,10.509c1.3,2.725,2.6,5.443,3.59,7.513,4.73-3.4,5.648-12.026,3.964-17.281a19.357,19.357,0,0,0-1.064-2.627C465.967,141.248,454.992,138.2,446.346,129.224Z" transform="translate(129.647 173.865)"/><path class="a" d="M495.141,134.054c-7.4,6.149-14.586,18.03-15.715,27.837-.691,5.857,2.887,14.928,8.3,17.639a7.01,7.01,0,0,0,1.531.567A48.656,48.656,0,0,0,491,171.913c.991-5.973,1.977-11.963,1.977-11.963s-.126,6.064-.252,12.125c-.305,3-.615,5.988-.85,8.265,5.827-.5,11.124-7.425,12.432-12.783a19.2,19.2,0,0,0,.461-2.791C505.658,154.343,497.844,146.149,495.141,134.054Z" transform="translate(183.182 181.213)"/><path class="a" d="M534.877,181.048c-5-8.171-15.773-17.031-25.412-19.668-5.756-1.586-15.4.487-18.952,5.335a6.827,6.827,0,0,0-.807,1.4,50.478,50.478,0,0,0,7.919,2.978c5.824,1.9,11.661,3.8,11.661,3.8s-6.046-1.072-12.094-2.138c-2.957-.766-5.9-1.538-8.136-2.12-.408,5.759,5.7,12,10.849,14.114a20.27,20.27,0,0,0,2.72.887C512.922,188.13,522.344,181.794,534.877,181.048Z" transform="translate(197.931 221.984)"/><path class="a" d="M479.738,102.765c-7.4,6.149-14.583,18.032-15.718,27.84-.688,5.857,2.889,14.928,8.3,17.639a6.994,6.994,0,0,0,1.528.567,48.7,48.7,0,0,0,1.747-8.184c.991-5.975,1.977-11.963,1.977-11.963s-.124,6.064-.25,12.125c-.305,3-.618,5.988-.852,8.262,5.827-.5,11.129-7.423,12.432-12.78a19.6,19.6,0,0,0,.464-2.791C490.254,123.056,482.44,114.862,479.738,102.765Z" transform="translate(159.746 133.614)"/><path class="a" d="M446.8,52.746c-8.968,3.57-19.547,12.649-23.728,21.62-2.5,5.353-1.964,15.075,2.325,19.313a6.885,6.885,0,0,0,1.271,1.011,48.727,48.727,0,0,0,4.243-7.241c2.831-5.373,5.655-10.758,5.655-10.758s-2.032,5.721-4.062,11.444c-1.24,2.756-2.478,5.5-3.421,7.589,5.7,1.314,12.917-3.633,15.849-8.323a19.7,19.7,0,0,0,1.321-2.511C450.388,75.258,445.555,65.072,446.8,52.746Z" transform="translate(95.307 57.522)"/><path class="a" d="M470.6,51.962c-6.873,6.712-13.083,19.119-13.426,28.984-.212,5.89,4.087,14.654,9.694,16.93a7.049,7.049,0,0,0,1.571.446,48.482,48.482,0,0,0,1.084-8.292c.507-6.036,1.006-12.082,1.006-12.082s.363,6.056.729,12.1c-.066,3.015-.134,6.018-.187,8.305,5.766-.958,10.491-8.27,11.363-13.716a19.247,19.247,0,0,0,.242-2.819C482.72,71.363,474.281,63.809,470.6,51.962Z" transform="translate(149.452 56.329)"/><path class="a" d="M530.382,105.654c-7.244,6.318-14.152,18.36-15.057,28.193-.547,5.87,3.245,14.858,8.714,17.442a7.2,7.2,0,0,0,1.543.535,48.839,48.839,0,0,0,1.553-8.222c.852-6,1.694-12.006,1.694-12.006l.038,12.127c-.237,3.005-.477,6-.661,8.282,5.814-.638,10.95-7.677,12.127-13.065a18.829,18.829,0,0,0,.4-2.8C541.374,125.7,533.379,117.686,530.382,105.654Z" transform="translate(237.843 138.009)"/><path class="a" d="M421.065,118.1c-9.311-2.589-23.3-1.793-32.169,2.783-5.3,2.723-10.9,10.741-10.138,16.678a6.89,6.89,0,0,0,.381,1.568,50.294,50.294,0,0,0,7.844-3.167c5.57-2.544,11.146-5.1,11.146-5.1s-5.156,3.3-10.309,6.6c-2.69,1.432-5.37,2.857-7.41,3.941,3.691,4.475,12.47,4.922,17.694,2.983a20.27,20.27,0,0,0,2.6-1.19C409.946,138.078,412.44,127.1,421.065,118.1Z" transform="translate(30.062 154.722)"/><path class="a" d="M294.84,92.5c2.415,8.829,9.956,19.8,18.125,24.756,4.874,2.962,14.308,3.573,18.887.038a6.807,6.807,0,0,0,1.119-1.079,47.5,47.5,0,0,0-6.492-4.816c-4.859-3.273-9.727-6.543-9.727-6.543l10.567,5.126c2.519,1.483,5.02,2.957,6.929,4.082,1.916-5.2-2.025-12.543-6.207-15.834a18.785,18.785,0,0,0-2.267-1.528C316.959,91.718,306.582,95.089,294.84,92.5Z" transform="translate(-97.493 118.001)"/><path class="a" d="M421.085,90.591c-9.941,2.776-22.22,11.22-27.691,20.271-3.278,5.4-3.832,15.778.224,20.763a7.375,7.375,0,0,0,1.233,1.215,52.427,52.427,0,0,0,5.345-7.206c3.626-5.385,7.246-10.786,7.246-10.786s-2.819,5.847-5.638,11.689c-1.634,2.791-3.268,5.562-4.511,7.672,5.895,2.037,14.137-2.4,17.788-7.044a20.535,20.535,0,0,0,1.694-2.516C422.282,114.891,418.326,103.533,421.085,90.591Z" transform="translate(48.418 115.094)"/><path class="a" d="M407.419,113.068c-6.071,7.43-10.826,20.447-10.045,30.29.459,5.877,5.731,14.106,11.563,15.748a7.08,7.08,0,0,0,1.614.27,49.207,49.207,0,0,0,.131-8.363c-.187-6.054-.383-12.115-.383-12.115s1.056,5.975,2.11,11.948c.275,3,.552,5.993.759,8.272,5.62-1.593,9.485-9.384,9.73-14.888a18.579,18.579,0,0,0-.086-2.829C421.666,131,412.413,124.434,407.419,113.068Z" transform="translate(58.36 149.287)"/><path class="a" d="M456.357,100.1c-9.53,1.639-21.8,8.335-27.784,16.25-3.583,4.717-5.113,14.336-1.825,19.361a6.978,6.978,0,0,0,1.036,1.253,49.511,49.511,0,0,0,5.683-6.2c3.9-4.672,7.806-9.359,7.806-9.359s-3.2,5.181-6.394,10.357c-1.8,2.438-3.588,4.866-4.954,6.717,5.292,2.458,13.4-.89,17.263-4.871a19.423,19.423,0,0,0,1.82-2.183C455.093,122.85,452.522,111.891,456.357,100.1Z" transform="translate(100.414 129.553)"/><path class="a" d="M479.635,74.319c-3.406-8.935-12.359-19.585-21.345-23.912-5.37-2.6-15.233-2.292-19.62,1.833a6.67,6.67,0,0,0-1.054,1.238,49.749,49.749,0,0,0,7.236,4.354c5.38,2.917,10.766,5.827,10.766,5.827l-11.5-4.271c-2.763-1.288-5.514-2.572-7.609-3.552-1.462,5.587,3.378,12.826,8.063,15.831a19.785,19.785,0,0,0,2.514,1.356C456.741,77.33,467.179,72.8,479.635,74.319Z" transform="translate(117.618 51.426)"/><path class="a" d="M537.643,173.144c-10.5-.8-25.276,3.01-33.745,9.767-5.068,4.031-9.306,13.774-7.206,19.951a7.218,7.218,0,0,0,.751,1.6,54.979,54.979,0,0,0,7.685-5.04c5.4-3.893,10.791-7.8,10.791-7.8s-4.79,4.611-9.571,9.228c-2.564,2.1-5.108,4.183-7.06,5.776,4.914,4,14.389,2.62,19.542-.56a21.274,21.274,0,0,0,2.521-1.818C530.11,196.819,530.387,184.573,537.643,173.144Z" transform="translate(208.742 240.517)"/><path class="a" d="M530.117,109.39c-7.854-4.735-20.894-7.549-30.207-5.6-5.564,1.152-12.783,7.082-13.63,12.717a6.6,6.6,0,0,0-.06,1.535,48.509,48.509,0,0,0,8.018-.915c5.766-.92,11.537-1.853,11.537-1.853s-5.585,1.717-11.164,3.442l-7.818,1.735c2.219,5.037,10.148,7.672,15.443,7.216a19.524,19.524,0,0,0,2.693-.431C514.735,124.878,519.873,115.451,530.117,109.39Z" transform="translate(193.617 134.222)"/><path class="a" d="M485.732,95.2c-5.131,4.922-9.79,14.056-10.105,21.35-.2,4.354,2.93,10.862,7.065,12.579a5.383,5.383,0,0,0,1.16.338,36.4,36.4,0,0,0,.85-6.124c.413-4.463.819-8.928.819-8.928s.232,4.478.464,8.953c-.066,2.231-.129,4.448-.187,6.144,4.271-.676,7.813-6.056,8.487-10.075a14.578,14.578,0,0,0,.194-2.085C494.574,109.615,488.374,103.977,485.732,95.2Z" transform="translate(177.517 122.102)"/><path class="a" d="M423.837,81.689c-7.294,7.46-13.713,21.083-13.834,31.808-.078,6.4,4.816,15.811,10.963,18.141a7.66,7.66,0,0,0,1.714.449,52.249,52.249,0,0,0,.963-9.036c.4-6.563.779-13.143.779-13.143s.55,6.568,1.107,13.128c.005,3.275.007,6.538.013,9.021,6.233-1.185,11.187-9.243,11.986-15.175a20.911,20.911,0,0,0,.184-3.068C437.492,102.454,428.125,94.459,423.837,81.689Z" transform="translate(77.698 101.552)"/><path class="a" d="M457.074,63.572c-7.294,7.46-13.716,21.083-13.834,31.808-.081,6.4,4.813,15.811,10.96,18.141a7.854,7.854,0,0,0,1.717.449,52.044,52.044,0,0,0,.961-9.036c.4-6.563.782-13.143.782-13.143s.55,6.568,1.1,13.128c.008,3.275.01,6.538.015,9.021,6.233-1.185,11.184-9.243,11.986-15.176a21.253,21.253,0,0,0,.184-3.068C470.726,84.337,461.362,76.342,457.074,63.572Z" transform="translate(128.261 73.991)"/><path class="a" d="M517.557,85.2c-7.866-6.87-21.935-12.614-32.8-12.268-6.485.194-15.8,5.426-17.894,11.59a7.59,7.59,0,0,0-.383,1.707,54.208,54.208,0,0,0,9.19.56c6.664.108,13.343.2,13.343.2s-6.626.824-13.244,1.656c-3.315.149-6.621.29-9.132.4,1.465,6.1,9.84,10.63,15.881,11.164a22.151,22.151,0,0,0,3.114.048C497.12,99.551,504.812,89.975,517.557,85.2Z" transform="translate(163.618 88.203)"/><path class="a" d="M402.45,25.5c-4.939,9.122-7.332,23.922-4.483,34.239,1.694,6.167,8.988,13.872,15.534,14.454a7.628,7.628,0,0,0,1.767-.033,52.706,52.706,0,0,0-1.571-8.925c-1.435-6.407-2.887-12.821-2.887-12.821s2.345,6.149,4.69,12.3c.908,3.141,1.815,6.268,2.506,8.65,5.653-2.814,8.174-11.878,7.3-17.785a20.814,20.814,0,0,0-.671-2.993C421.289,41.743,410.095,36.595,402.45,25.5Z" transform="translate(57.532 16.067)"/><path class="a" d="M372.287,37.156c-4.773,8.817-7.087,23.125-4.332,33.1,1.636,5.96,8.686,13.411,15.014,13.975a7.551,7.551,0,0,0,1.709-.033,50.939,50.939,0,0,0-1.52-8.63c-1.387-6.192-2.789-12.392-2.789-12.392s2.267,5.945,4.531,11.888c.882,3.036,1.755,6.059,2.423,8.361,5.469-2.72,7.9-11.482,7.062-17.193a20.082,20.082,0,0,0-.65-2.892C390.5,52.861,379.679,47.884,372.287,37.156Z" transform="translate(11.936 33.805)"/><path class="a" d="M423.659,61.716C415.848,67.338,407.831,78.689,406,88.4c-1.1,5.794,1.828,15.087,7.029,18.168a7.191,7.191,0,0,0,1.488.676,49.6,49.6,0,0,0,2.322-8.045c1.417-5.892,2.824-11.8,2.824-11.8s-.555,6.041-1.112,12.077c-.519,2.973-1.039,5.93-1.44,8.184,5.847-.1,11.628-6.636,13.312-11.888a19.111,19.111,0,0,0,.661-2.753C432.706,82.685,425.495,73.969,423.659,61.716Z" transform="translate(71.255 71.167)"/><path class="a" d="M334.394,51.8c-6.056,8.088-10.478,22-9.213,32.335.751,6.17,6.671,14.6,12.889,16.078a7.565,7.565,0,0,0,1.707.212,51.539,51.539,0,0,0-.24-8.812c-.466-6.366-.943-12.742-.943-12.742s1.377,6.248,2.751,12.49c.431,3.152.855,6.288,1.177,8.676,5.849-1.921,9.566-10.3,9.576-16.1a20.481,20.481,0,0,0-.217-2.973C350.207,70.066,340.167,63.551,334.394,51.8Z" transform="translate(-51.667 56.089)"/><path class="b" d="M858.461,392.058a59.737,59.737,0,0,0,19.658-14.888,29.724,29.724,0,0,0,3.333.3c9.14.217,19.6-.164,28.193-3.26,13.655-4.919,25.467-13.476,38.187-20.241,10.93-5.814,21.779-9.374,34.251-9.266-14.787-1.793-28,1.984-41.52,7.8-13.105,5.622-25.825,12.362-40.141,14.318-4.654.57-9.664-.028-14.318-.136,8.04-12.037,13.96-25.43,21.532-37.738,4.735-7.715,10.269-15.188,17.646-20.621,5.975-4.427,12.695-6.548,19.961-7.69-12.995.925-23.483,6.223-32.459,15.541-10.241,10.6-17.457,23.637-25.689,35.7-7.929,11.656-17.288,23.773-30.807,29.342-7.13,2.935-15.115,4.13-22.606,5.895-7.4,1.767-15.143,2.771-22.686,3.885-7.6,1.114-15.2,2.012-22.823,2.854a73.031,73.031,0,0,0,7.708-17.361c2.645-8.885,4.4-18.04,6.306-27.141a42.427,42.427,0,0,0,18.97-5.978c6.717-4.074,12.168-10.678,19.63-13.368-7.435,1.034-14.016,5.842-20.924,8.585a34.778,34.778,0,0,1-15.75,2.176c1.1-4.594,2.314-9.157,3.827-13.64a108.842,108.842,0,0,1,6.775-15.188c3.964-7.607,10.958-13.829,16.822-19.968,9.608-10.08,20.9-21.191,21.007-35.862a26.69,26.69,0,0,1-3.58,11.709c-9.25,15.433-26.072,24.29-37.252,38.119-9.856,12.2-14.563,27.631-18.942,42.33-4.763,15.975-9.553,33.825-22.273,45.67-.219.217-1.349,1.087-2.67,2.093-6.114.625-12.226,1.248-18.337,1.957-13.325,1.548-26.486,3.477-39.591,5.922a132.886,132.886,0,0,0,9.059-12.226c8.865-13.532,12.168-28.745,12.279-44.722-2.4,15.6-7.766,29.859-18.5,41.732a189.83,189.83,0,0,1-20.4,18.8c-.222.055-.441.083-.661.136a142.284,142.284,0,0,0-41.409,16.083c-8.646,5.136-15.667,12.526-23.458,18.72a59.86,59.86,0,0,1-2.67-21.436c.744-8.4,1.568-17.2,1.735-18.42,1.762-13.885,5.368-26.382,14.18-37.6,5.368-6.82,10.544-13.4,16.739-19.507,12.914-12.715,27.56-23.556,41.684-34.912,15.032-12.064,39.481-24.86,50.99-40.4a116.324,116.324,0,0,0,7.627-11.873c17.372-2.365,35.956-5.433,50.052-15.269a132,132,0,0,0,16.714-14.454c7.571-7.39,14.757-21.68,26.294-23.609-11.207.542-19.245,13.176-27.507,19.4-6,4.511-11.948,9.127-18.693,12.742-13.272,7.118-26.514,9.346-41.134,9.969,1.515-3.285,3-6.6,4.4-9.969,7.16-17.008,13.822-34.534,24.2-49.936,9.692-14.318,22.356-25.1,36.755-34.559-17.949,9.916-33.23,22.169-44.9,39.067-11.1,16.058-19.3,33.989-28.22,51.242-2.2,3.666-4.185,7.526-6.664,10.975-13.519,18.693-34.912,32.3-56.413,45.184.192-5.517.852-10.9,2.67-15.38,8.149-20.241,20.9-39.448,25.412-60.8,2.562-11.956.552-23.448-3.275-34.967-3.083-9.319-6.278-18.393-7.846-28.039.88,13.965,5.865,27.2,7.213,41.081,1.541,15.894-5.37,30.374-13.327,44.094-2.312,3.994-4.735,7.907-7.186,11.845-6.386-10.269-15.334-18.826-20.649-30.1-6.581-14.048-6.939-30.785-8.121-46.053-.441,17.878-2.312,39.4,6.581,55.7,4.707,9.374,11.646,17.5,16.05,26.952a12.334,12.334,0,0,1,.772,2.282c-2.725,4.591-5.315,9.21-7.571,14.018-4.241,9.13-5.343,18.857-6.112,28.609-9.747,5.95-19.164,11.928-27.368,18.448-14.288,11.331-27.862,24.562-36.7,40.565-.635,1.14-1.24,2.309-1.846,3.449-5.315-13.04-11.59-25.674-17.208-38.661a214.629,214.629,0,0,1-13.216-41.107c16.933-7.823,25.853-27.9,32.6-44.122,4.349-10.405,8.4-21,14.84-30.4A42.629,42.629,0,0,1,648.914,199.7c-7.985,2.418-15.39,5.814-21.227,11.873-7.518,7.826-13.078,16.792-18.393,26.163-5.423,9.538-10.683,19.129-17.677,27.658-3.716,4.511-8.287,9.129-13.711,11.711-.055-.489-.139-.953-.192-1.442a152.43,152.43,0,0,1-1.1-20.974c.028-1.765.083-3.53.108-5.3,0-.381.028-1.929.028-2.282,1.432-17.089,4.13-33.745,9.747-50.072a139.1,139.1,0,0,1,9.911-22.85c1.654-2.988,3.58-6.709,5.784-9.346,4.679-5.569,10.405-12.768,16.547-18.12,7.213-6.3,14.948-12.089,22.548-18.012.055.27.083.57.139.842,20.51-3.371,44.16-1.142,62.414-12.445,9.417-5.025,15.5-15.052,23.652-21.653,4.488-3.641,9.414-6.9,15.279-7.718a106.467,106.467,0,0,1,13.491-.678,103.387,103.387,0,0,0-13.6-.353c-5.92.517-10.9,3.1-15.778,6.3-9.331,6.139-16.27,15.433-26.4,20.458-9.167,4.566-19.437,5.216-29.542,5.625-6.112.245-12.2.272-18.282.434,3.772-3.177,7.407-6.492,10.821-10C676.418,96.271,687.1,81.3,694.012,64.13c6.139-15.213,6.966-31.135,6.47-47.274-.358,10.705-1.019,21.191-3.964,31.571a105.4,105.4,0,0,1-16.769,33.825,143.989,143.989,0,0,1-28.3,28.8c-10.877,8.287-22.55,15.513-33.591,23.609-4.158,3.071-8.232,6.3-12.142,9.755.58-3.56,1.185-7.118,1.654-10.705,1.679-12.768,1.982-25.049-.305-37.764-1.568-8.56-5.559-16.411-10.13-23.8-3.167-5.136-6.5-10.216-8.948-15.758a55.808,55.808,0,0,1-3.305-11.845,54.908,54.908,0,0,0,2.093,12.279c1.9,5.9,4.79,11.439,7.491,17.008,3.772,7.826,6.5,15.677,7.213,24.318,1.843,21.68-6.472,41.84-11.013,62.623a139.107,139.107,0,0,0-11.1,17.959,164.513,164.513,0,0,0-18.97,65.26A94.512,94.512,0,0,1,535.865,223.8c-9.278-10.594-15.334-23.312-19.794-36.515,6.992-12.334,9.553-25.349,11.343-39.339,1.9-14.591,4.349-28.147,12.031-40.943-8.7,11.356-12.914,23.962-16.272,37.683-2.67,10.839-5.423,21.247-10.71,30.782-.111-.381-.219-.761-.3-1.114-4.985-18.34-7.571-37.655-15.639-55.017a65.009,65.009,0,0,0-14.482-20.513c-5.809-5.406-12.609-8.8-20.014-11.492l3.88,1.793c16.217,7.662,25.056,23.962,29.378,40.428,5.037,19.207,5.7,39.312,10.214,58.657,4.352,18.529,11.621,36.3,24.229,50.942a109.86,109.86,0,0,0,30.4,24.94,192.894,192.894,0,0,0,5.945,38.58c3.855,15.052,7.241,28.99,14.482,42.98,14.621,28.2,10.244,54.447,3.414,84.142-12.773-4.727-47.879-23.42-55.808-35.21-9.661-14.374-2.229-37.794-4.183-53.985-4.627-37.766-30.094-66.972-54.79-94.278-1.679-1.846-3.469-3.721-5.315-5.569,7.186-14.48,6.553-35.157,3.084-50.017-3.525-15.08-10.3-29.179-4.6-44.258-9.306,18.909,1.788,39.559.55,59.446-.55,8.857-1.679,19.832-5.892,28.173-10.957-10.378-22.906-21.111-30.038-32.875a126.6,126.6,0,0,1-16.986-47.6,129.018,129.018,0,0,0,12.334,48.66c8.038,16.789,25.467,31.977,36.644,46.838,11.371,15.16,23.155,30.185,32.076,46.921.386.734.716,1.467,1.074,2.173-15.445-3.83-31-7.5-46.006-12.8-12.087-4.266-24.312-9.808-34.36-17.823a132.425,132.425,0,0,1-22.633-23.665c5.948,9.972,12.445,19.237,20.952,27.305,9.775,9.291,21.532,16.436,33.674,22.278,18,8.613,37,14.944,55.614,22.17a115.127,115.127,0,0,1,5.148,25.838v.381c.028,1.223.028,2.446.028,3.7.028,3.613.083,7.226.083,10.839-.055,6.656-.552,13.312-1.019,19.915-.194,2.69-.358,5.38-.552,8.068-16.85-8.557-35.434-14.046-53.549-18.962-9.223-2.5-18.473-5.216-27.918-6.656a250.7,250.7,0,0,0-30.946-2.526c-6.469-.164-12.914-.192-19.383-.192-6-17.9-20.51-32.655-35.681-43.525-9.2-6.6-19.053-12.362-27.837-19.507a96.764,96.764,0,0,1-18.665-19.724,100.753,100.753,0,0,0,15.307,21.544c7.324,7.715,15.556,14.482,23.4,21.653,11.593,10.6,23.43,24.1,27.671,39.614-8.315.053-16.63.108-24.918-.028-18.72-.325-37.829-1.3-55.972-6.222-16.492-4.483-30.4-12.47-41.215-25.619a72.391,72.391,0,0,0,25.082,22.767c11.452,6.275,24.174,10.025,36.947,12.634,19.356,3.938,39.125,5.461,58.811,6.873,17.9,1.276,36.094,2.173,53.824,5.38-3.164,2.715-6.442,5.35-9.967,7.851-7.846,5.569-16.575,8.91-25.77,11.628-11.177,3.26-22.659,5.269-33.616,9.238a82.829,82.829,0,0,0-25.109,15.513A79.171,79.171,0,0,1,344.214,403.2c10.683-2.065,21.612-2.69,32.35-4.458,18.309-2.96,34.524-11.328,48.623-22.739,5.973,1.82,11.865,3.913,17.729,6.031,23.239,8.287,46.669,17.008,66.161,32.413a44.334,44.334,0,0,1,8.754,8.477c-18.06,11.111-38.351,18.8-59.716,20.866-16.85,1.6-33.341,2.226-49.7,6.845a63.129,63.129,0,0,0-20.43,11.52c-4.294,3.749-7.624,8.287-10.985,12.8,4.241-4.511,8.454-9.238,13.877-12.417a68.108,68.108,0,0,1,22.109-8.285c16.6-3.126,33.946-.489,50.688-.653a132.25,132.25,0,0,0,35.215-5.3c33.119-9.619,36.122-18.476,63.324,11.981,4.735,5.3,8.4,12.253,11.288,20.1h68.969c5.312-13.748,13.325-25.621,24.971-34.234a91.058,91.058,0,0,1,26.43-13.257c14.427-4.591,28.856-8.94,43.693-12.092,13.355-2.824,26.735-5.406,40.144-7.96a29.639,29.639,0,0,1,4.652,1.412c8.537,3.452,15.42,9.863,22.331,15.7,7.294,6.112,14.813,11.737,23.76,15.241,18.859,7.337,39.289,9.7,59.386,10.625,13.022.623,26.047-1.17,39.069-1.767-17.788-.814-37.2-2.093-54.873-4.78a145.74,145.74,0,0,1-38.986-11.411c-13.516-6.359-22.52-19.507-34.113-29.206q15.82-3.3,31.443-7.39C839.741,398.825,849.652,396.054,858.461,392.058Z" transform="translate(-191.049 2.923)"/><path class="b" d="M765.045,634.23c7.892-10.854,27.59-13.693,42.408-15.521,18.531-2.312,41.414-2.2,56.671-11.666-16.658,9.18-40.86,7.66-60.294,9.4-16.981,1.518-38.7,4.49-47.728,16.643-13.446-1.828-26.6-4.16-38.9-7.77-16.076-4.712-32.648-11.779-44.4-21.421-17.505-14.376-27.063-33.374-32.411-52.9.643.177,1.286.33,1.929.53,14.233,4.536,27.764,9.8,41.21,15.191-.439.02-.85.043-1.258.088,2.483,12.261,10.171,21.9,22.212,30.333,10.872,7.639,32.706,13.451,34.516,26.065-.028-12.46-19.056-19.129-28.73-27.23-9-7.7-15.344-15.675-17.3-25.472,6.109,2.446,12.216,4.889,18.413,7.266,6.459,2.466,12.919,4.49,19.757,6.427,14.2,4.029,29.988,8.565,45.184,10.171a317.577,317.577,0,0,0,68.45.177c34.226-3.522,64.885-2.685,97.414,5.592-31.975-10.236-63.13-12.768-98.145-11.139q-11.353.427-22.533.373c5.29-3.1,10.345-6.581,16.63-8.915,11.164-5.2,25.747-5.04,38.4-5.723-16.484.088-31.713.177-46.179,6.8-5,2.62-9.82,5.547-15.168,7.748-17.215-.419-34.166-2.047-50.942-5.92-24.726-4.954-46.442-15.7-67.981-25.208-10.436-4.6-19.963-10.06-29.723-14.991,10.345,2.466,21.713,3.61,32.615,4.16a42.3,42.3,0,0,0,8.653,5.307c7.307,3.346,15.256,5.524,23.264,7.682,7.6,2.047,14.613,3.918,21.481,7.176,6.021,2.62,25.573,10.92,30.074,14.883-3.681-4.14-21.277-12.856-26.625-15.851a142.877,142.877,0,0,0-20.692-9.026,198.163,198.163,0,0,1-21.161-8.827c-.466-.287-.847-.572-1.286-.86,1.9.045,3.769.088,5.582.111,16.134.33,35.043.726,54.1,2.378,8.388,6.956,20.722,10.632,31.828,14.553-7.569-3.525-15.987-6.8-22.417-11.515a18.887,18.887,0,0,1-2.66-2.4c24.726,2.531,49.16,7.375,67.4,17.107-13.3-7.09-30.951-15.3-46.265-19.285-53.133-13.781-119.334-4.382-160.163-39.889a33.571,33.571,0,0,1-7.481-9.18H557.447c-8.008,13.648-20.165,25.689-38,35.023-15.607,2.443-31.594,2.62-47.521,2.731-9.732.043-19.406-.507-29.08-1.321-19.378-1.586-39.9-4.137-59.272-1.145-16.222,2.509-31.186,7.332-46.414,12.107,13.446-3.368,26.773-6.934,40.774-8.827,17.243-1.674,33.785-.373,50.824,2q6.883.957,13.766,1.848a104.14,104.14,0,0,0-12.1,5.988c-10.579-2.07-21.8.043-32.267,1.518,7.1-.419,14.613-1.233,21.746-.593,1.841.131,4.442.9,6.606,1.145a60.753,60.753,0,0,1-8.242,3.477c-11.517,4.778-26.072,4.074-38.757,4.271,16.456.53,31.682,1.014,46.588-5.04,7.453-3.5,14.613-7.728,23.324-9.291.963-.176,1.694-.287,2.309-.373,8.739.988,17.505,1.782,26.448,2.133,4.854.2,9.735.4,14.613.418-25.077,9.049-50.677,16.093-75.93,25.427q-8.944,3.3-17.682,6.913c-6.021-.726-12.011-1.629-17.974-2.665-20.11-3.522-39.894-8.189-60.208-11.073a222.97,222.97,0,0,0-52.929-1.429,196.722,196.722,0,0,1,37.615,1.409c14.467,2.068,28.553,5.239,42.524,8.673,13.62,3.323,27.182,6.714,40.918,9.445a235.787,235.787,0,0,0-24.842,12.964c-16.076,9.8-28.468,21.862-41.24,34.012-12.77,12.175-25.719,24.547-41.092,34.937-12.538,8.431-25.924,15.455-40.159,22.147.877-.376,1.725-.726,2.574-1.1,16.161-6.891,32.237-14.419,45.592-24.28,15.433-10.743,29.08-22.7,42.788-34.672,13.123-11.449,26.481-21.993,43.255-30.49a264.671,264.671,0,0,1,25.866-11.227,250.663,250.663,0,0,0,32.5,3.192c-8.068,5.017-15.228,10.589-23.09,16.136-11.31,7.99-25.631,10.017-40.537,11.028,17.155-.219,31.067-2.332,44.891-10.347,9.939-5.766,18.413-11.82,28.937-16.686a250.357,250.357,0,0,0,41.326-3.215,169.716,169.716,0,0,0,39.571-11.931c2.69-1.145,25.719-11.2,25.719-13.451v.177c-5.61,34.277-51.5,45.3-88.118,54.9-9.586,2.509-18.471,5.965-27.472,9.445-4.442,1.74-8.857,3.477-13.269,5.262v-.111c-11.9-.045-22.563-1.233-34.254,1.586-8.1,1.936-15.753,4.755-24.318,5.327a146.74,146.74,0,0,1-17.856-.552c15.43,2,26.829.925,41.969-1.805,8.65-1.563,16.484-.991,24.608-.262-.582.262-1.2.484-1.783.746-8.242,3.7-15.987,7.685-23.791,11.845-7.657,4.049-14.117,9.883-19.668,15.475-10.024,10.04-17.392,21.287-24.318,32.668,10.725-15.41,22.8-31.765,41.356-42.662,10.463-6.165,22.3-11.139,34.224-15.5,12.1-4.4,24.406-8.981,37-12.526.963-.287,1.929-.484,2.894-.749a28.8,28.8,0,0,1-5.408,11.227c-4.969,6.538-12.3,11.845-18.852,17.457-6.606,5.615-12.627,11.688-16.484,18.647a36.432,36.432,0,0,0-4.823,17.808,36.786,36.786,0,0,1,7.98-18.624c5.29-6.581,12.188-12,19.671-17.193,7.6-5.239,15.549-10.413,20.984-17.082a40.723,40.723,0,0,0,7.453-14.661c16.134-3.237,32.88-4.909,48.282-9.886,17.974-5.811,31.594-15.233,42-27.671a124.44,124.44,0,0,0,18.325-30.336c-.381,3.764-.673,7.529-.789,11.293a115.485,115.485,0,0,1-5.085,31.526,110.574,110.574,0,0,1-14.263,28.838,132.3,132.3,0,0,1-21.716,6.3c-9.351,1.672-18.94,2.531-28.117,4.778-19.172,4.71-19.26,18.844-32.323,28.024,13.706-7.947,15.46-21.532,34.37-24.678,9.994-1.674,20.342-1.717,30.454-2.884q5.215-.957,10.259-2.07a180.4,180.4,0,0,1-20.284,18.647c-12.861,9.772-27.036,18.534-39.4,28.684-12.13,9.926-18.062,22.873-24.229,35.288A121.658,121.658,0,0,1,456.236,733.8a113.55,113.55,0,0,1-10.259,11.623c6.137-5.592,11.719-11.227,16.161-17.677,5.875-8.542,10.378-17.591,16.252-26.13a72.091,72.091,0,0,1,17.505-18.34c4.911-3.522,9.793-7.087,14.964-10.345,1.462,13.406-9.556,25.117-10.2,38.744,2.952-15.057,17.651-26.66,16.134-42.158.847-.461,1.636-.946,2.511-1.387,17.187-8.431,42.5-29.784,53.895-40.749,13.269-12.768,21.92-27.3,24.229-43.389,1.316-9.225.819-21.244,6.225-30.424a197.988,197.988,0,0,0-.935,27.3c.615,14.066,5.232,27.187,10.874,40.265-3.86,8.673-10.317,14.485-19.845,21-7.892,5.416-15.813,10.481-20.4,17.941-7.481,12.175-4.851,26.483-4.092,39.473.5,8.454.966,16.885,1.432,25.339q.79-13.868,1.578-27.716c.673-12.087-.292-25.823,9-36.346,6.606-7.463,17.712-12,26.683-17.631a53.755,53.755,0,0,0,11.31-9.356c10.874,24.764,14.089,48.121,7.541,74.012-5.317,18.844-17.331,35.353-28.964,52.3,14.351-17.258,28.321-33.835,35.978-53.559a100.273,100.273,0,0,0,6.724-31.438c10.141,10.193,14.495,22.873,22.913,34.256,5.494,6.538,12.011,12.437,22.066,15.012,8.154,2.093,16.512,3.59,24.668,5.638-9.177-2.973-19.436-4.866-27.971-8.872-7.861-3.676-12.538-9.6-16.076-15.874-8.212-14.507-11.338-29.476-25.631-41.341a109.318,109.318,0,0,0-4.385-24.5c-5.759-19.462-14.2-38.26-12.858-58.491a108.173,108.173,0,0,1,2.746-17.215,139.741,139.741,0,0,0,12.977,25.271c-.262,24.613,26.947,46.913,53.428,58.844,16.746,7.551,39.513,15.74,42.816,31.944,2.4,11.8-3.684,24.237-7.891,35.441,5.232-11.25,12.334-23.556,10.872-35.729-1.987-16.512-22.709-26.153-39.221-34.627-16.865-8.63-36.447-22.565-44.836-38.394,13.827,12.261,31.8,20.914,52.462,27.1,61.932,18.559,143.009-2.64,189.655,40.991C865.878,641.627,814.059,640.152,765.045,634.23ZM503.028,566.317a189.92,189.92,0,0,1-59.1,13.494,223.782,223.782,0,0,1-28.758-.045c6.633.419,20.342-5.635,27.151-7.133,9.5-2.09,19.114-4.006,28.349-6.669,25.545-7.332,48.2-15.455,71.314-26.483C538.8,551.522,515.944,561.01,503.028,566.317Z" transform="translate(-178.186 737.427)"/><path class="b" d="M379.778,883.927c15.334-131.59,13.577-296.423,8.482-443.947-2.3-66.582-5.221-161.875-12.669-239.276H444.56c-15.362,152.539-10.5,363.1-5.151,499.41,2.38,60.188.829,127.952,7.034,183.813a363.741,363.741,0,0,0,6.621,41.011c5.2,22.916,10.884,41.6,16.935,57.044H363.438C370.316,952.377,375.669,919.333,379.778,883.927Z" transform="translate(6.863 282.605)"/><path class="b" d="M458.563,185.286s-49.971,15.347-38.754,179.542c0,0-6.878,532.28,38.754,660.781l-29.819,15.627-32.391-27.792V886.3l-11.22-555.132-9.177-77.511,33.654-49.966,18.428-13.464Z" transform="translate(25.906 259.15)"/><path class="b" d="M351.32,181.13s49.971,15.347,38.754,179.542c0,0,6.878,532.28-38.754,660.783l29.819,15.627,32.391-27.794V882.148l11.22-555.13,9.177-77.514-33.654-49.966-18.428-13.464Z" transform="translate(-11.572 252.828)"/></svg>